<svg version="1.1" xmlns="http://www.w3.org/2000/svg" xmlns:xlink="http://www.w3.org/1999/xlink" width="689.076171875" height="476"><defs/><g><text fill="#eeeeee" stroke="none" font-family="Arial" font-size="24px" font-style="normal" font-weight="normal" text-decoration="none" x="0" y="0"></text><text fill="#eeeeee" stroke="none" font-family="Arial" font-size="24px" font-style="normal" font-weight="normal" text-decoration="none" x="0" y="30"></text><text fill="#eeeeee" stroke="none" font-family="Arial" font-size="24px" font-style="normal" font-weight="normal" text-decoration="none" x="0" y="60"></text><text fill="#eeeeee" stroke="none" font-family="Arial" font-size="24px" font-style="normal" font-weight="normal" text-decoration="none" x="0" y="90"></text><text fill="#eeeeee" stroke="none" font-family="Arial" font-size="24px" font-style="normal" font-weight="normal" text-decoration="none" x="0" y="120"></text><text fill="#eeeeee" stroke="none" font-family="Arial" font-size="24px" font-style="normal" font-weight="normal" text-decoration="none" x="0" y="150"></text><text fill="#eeeeee" stroke="none" font-family="Arial" font-size="24px" font-style="normal" font-weight="normal" text-decoration="none" x="0" y="180"></text><text fill="#eeeeee" stroke="none" font-family="Arial" font-size="24px" font-style="normal" font-weight="normal" text-decoration="none" x="0" y="210"></text><text fill="#eeeeee" stroke="none" font-family="Arial" font-size="24px" font-style="normal" font-weight="normal" text-decoration="none" x="0" y="240"></text><text fill="#eeeeee" stroke="none" font-family="Arial" font-size="24px" font-style="normal" font-weight="normal" text-decoration="none" x="0" y="270"></text><text fill="#eeeeee" stroke="none" font-family="Arial" font-size="24px" font-style="normal" font-weight="normal" text-decoration="none" x="0" y="300"></text><text fill="#eeeeee" stroke="none" font-family="Arial" font-size="24px" font-style="normal" font-weight="normal" text-decoration="none" x="0" y="330"></text><text fill="#eeeeee" stroke="none" font-family="Arial" font-size="24px" font-style="normal" font-weight="normal" text-decoration="none" x="0" y="360"></text><text fill="#eeeeee" stroke="none" font-family="Arial" font-size="24px" font-style="normal" font-weight="normal" text-decoration="none" x="0" y="390"></text><text fill="#eeeeee" stroke="none" font-family="Arial" font-size="24px" font-style="normal" font-weight="normal" text-decoration="none" x="0" y="420"></text><text fill="#eeeeee" stroke="none" font-family="Arial" font-size="24px" font-style="normal" font-weight="normal" text-decoration="none" x="0" y="450"></text><text fill="#eeeeee" stroke="none" font-family="Arial" font-size="24px" font-style="normal" font-weight="normal" text-decoration="none" x="200" y="0"></text><text fill="#eeeeee" stroke="none" font-family="Arial" font-size="24px" font-style="normal" font-weight="normal" text-decoration="none" x="200" y="30"></text><text fill="#eeeeee" stroke="none" font-family="Arial" font-size="24px" font-style="normal" font-weight="normal" text-decoration="none" x="200" y="60"></text><text fill="#eeeeee" stroke="none" font-family="Arial" font-size="24px" font-style="normal" font-weight="normal" text-decoration="none" x="200" y="90"></text><text fill="#eeeeee" stroke="none" font-family="Arial" font-size="24px" font-style="normal" font-weight="normal" text-decoration="none" x="200" y="120"></text><text fill="#eeeeee" stroke="none" font-family="Arial" font-size="24px" font-style="normal" font-weight="normal" text-decoration="none" x="200" y="150"></text><text fill="#eeeeee" stroke="none" font-family="Arial" font-size="24px" font-style="normal" font-weight="normal" text-decoration="none" x="200" y="180"></text><text fill="#eeeeee" stroke="none" font-family="Arial" font-size="24px" font-style="normal" font-weight="normal" text-decoration="none" x="200" y="210"></text><text fill="#eeeeee" stroke="none" font-family="Arial" font-size="24px" font-style="normal" font-weight="normal" text-decoration="none" x="200" y="240"></text><text fill="#eeeeee" stroke="none" font-family="Arial" font-size="24px" font-style="normal" font-weight="normal" text-decoration="none" x="200" y="270"></text><text fill="#eeeeee" stroke="none" font-family="Arial" font-size="24px" font-style="normal" font-weight="normal" text-decoration="none" x="200" y="300"></text><text fill="#eeeeee" stroke="none" font-family="Arial" font-size="24px" font-style="normal" font-weight="normal" text-decoration="none" x="200" y="330"></text><text fill="#eeeeee" stroke="none" font-family="Arial" font-size="24px" font-style="normal" font-weight="normal" text-decoration="none" x="200" y="360"></text><text fill="#eeeeee" stroke="none" font-family="Arial" font-size="24px" font-style="normal" font-weight="normal" text-decoration="none" x="200" y="390"></text><text fill="#eeeeee" stroke="none" font-family="Arial" font-size="24px" font-style="normal" font-weight="normal" text-decoration="none" x="200" y="420"></text><text fill="#eeeeee" stroke="none" font-family="Arial" font-size="24px" font-style="normal" font-weight="normal" text-decoration="none" x="200" y="450"></text><text fill="#eeeeee" stroke="none" font-family="Arial" font-size="24px" font-style="normal" font-weight="normal" text-decoration="none" x="400" y="0"></text><text fill="#eeeeee" stroke="none" font-family="Arial" font-size="24px" font-style="normal" font-weight="normal" text-decoration="none" x="400" y="30"></text><text fill="#eeeeee" stroke="none" font-family="Arial" font-size="24px" font-style="normal" font-weight="normal" text-decoration="none" x="400" y="60"></text><text fill="#eeeeee" stroke="none" font-family="Arial" font-size="24px" font-style="normal" font-weight="normal" text-decoration="none" x="400" y="90"></text><text fill="#eeeeee" stroke="none" font-family="Arial" font-size="24px" font-style="normal" font-weight="normal" text-decoration="none" x="400" y="120"></text><text fill="#eeeeee" stroke="none" font-family="Arial" font-size="24px" font-style="normal" font-weight="normal" text-decoration="none" x="400" y="150"></text><text fill="#eeeeee" stroke="none" font-family="Arial" font-size="24px" font-style="normal" font-weight="normal" text-decoration="none" x="400" y="180"></text><text fill="#eeeeee" stroke="none" font-family="Arial" font-size="24px" font-style="normal" font-weight="normal" text-decoration="none" x="400" y="210"></text><text fill="#eeeeee" stroke="none" font-family="Arial" font-size="24px" font-style="normal" font-weight="normal" text-decoration="none" x="400" y="240"></text><text fill="#eeeeee" stroke="none" font-family="Arial" font-size="24px" font-style="normal" font-weight="normal" text-decoration="none" x="400" y="270"></text><text fill="#eeeeee" stroke="none" font-family="Arial" font-size="24px" font-style="normal" font-weight="normal" text-decoration="none" x="400" y="300"></text><text fill="#eeeeee" stroke="none" font-family="Arial" font-size="24px" font-style="normal" font-weight="normal" text-decoration="none" x="400" y="330"></text><text fill="#eeeeee" stroke="none" font-family="Arial" font-size="24px" font-style="normal" font-weight="normal" text-decoration="none" x="400" y="360"></text><text fill="#eeeeee" stroke="none" font-family="Arial" font-size="24px" font-style="normal" font-weight="normal" text-decoration="none" x="400" y="390"></text><text fill="#eeeeee" stroke="none" font-family="Arial" font-size="24px" font-style="normal" font-weight="normal" text-decoration="none" x="400" y="420"></text><text fill="#eeeeee" stroke="none" font-family="Arial" font-size="24px" font-style="normal" font-weight="normal" text-decoration="none" x="400" y="450"></text><text fill="#eeeeee" stroke="none" font-family="Arial" font-size="24px" font-style="normal" font-weight="normal" text-decoration="none" x="600" y="0"></text><text fill="#eeeeee" stroke="none" font-family="Arial" font-size="24px" font-style="normal" font-weight="normal" text-decoration="none" x="600" y="30"></text><text fill="#eeeeee" stroke="none" font-family="Arial" font-size="24px" font-style="normal" font-weight="normal" text-decoration="none" x="600" y="60"></text><text fill="#eeeeee" stroke="none" font-family="Arial" font-size="24px" font-style="normal" font-weight="normal" text-decoration="none" x="600" y="90"></text><text fill="#eeeeee" stroke="none" font-family="Arial" font-size="24px" font-style="normal" font-weight="normal" text-decoration="none" x="600" y="120"></text><text fill="#eeeeee" stroke="none" font-family="Arial" font-size="24px" font-style="normal" font-weight="normal" text-decoration="none" x="600" y="150"></text><text fill="#eeeeee" stroke="none" font-family="Arial" font-size="24px" font-style="normal" font-weight="normal" text-decoration="none" x="600" y="180"></text><text fill="#eeeeee" stroke="none" font-family="Arial" font-size="24px" font-style="normal" font-weight="normal" text-decoration="none" x="600" y="210"></text><text fill="#eeeeee" stroke="none" font-family="Arial" font-size="24px" font-style="normal" font-weight="normal" text-decoration="none" x="600" y="240"></text><text fill="#eeeeee" stroke="none" font-family="Arial" font-size="24px" font-style="normal" font-weight="normal" text-decoration="none" x="600" y="270"></text><text fill="#eeeeee" stroke="none" font-family="Arial" font-size="24px" font-style="normal" font-weight="normal" text-decoration="none" x="600" y="300"></text><text fill="#eeeeee" stroke="none" font-family="Arial" font-size="24px" font-style="normal" font-weight="normal" text-decoration="none" x="600" y="330"></text><text fill="#eeeeee" stroke="none" font-family="Arial" font-size="24px" font-style="normal" font-weight="normal" text-decoration="none" x="600" y="360"></text><text fill="#eeeeee" stroke="none" font-family="Arial" font-size="24px" font-style="normal" font-weight="normal" text-decoration="none" x="600" y="390"></text><text fill="#eeeeee" stroke="none" font-family="Arial" font-size="24px" font-style="normal" font-weight="normal" text-decoration="none" x="600" y="420"></text><text fill="#eeeeee" stroke="none" font-family="Arial" font-size="24px" font-style="normal" font-weight="normal" text-decoration="none" x="600" y="450"></text><g transform="translate(-158,2) scale(1,1)"><path fill="#C0C0C0" stroke="none" d="M 471 24.5 C 471 19.2532944 475.2532944 15 480.5 15 C 485.7467056 15 490 19.2532944 490 24.5 C 490 29.7467056 485.7467056 34 480.5 34 C 475.2532944 34 471 29.7467056 471 24.5 Z" opacity="0.2"/></g><g transform="translate(-158,2) scale(1,1)"><path fill="#000000" stroke="none" d="M 464 17.5 C 464 12.2532944 468.2532944 8 473.5 8 C 478.7467056 8 483 12.2532944 483 17.5 C 483 22.7467056 478.7467056 27 473.5 27 C 468.2532944 27 464 22.7467056 464 17.5 Z"/></g><g transform="translate(-158,2) scale(1,1)"><path fill="#C0C0C0" stroke="none" d="M 393 71 L 568.41162109375 71 Q 578.41162109375 71 578.41162109375 81 L 578.41162109375 101 Q 578.41162109375 111 568.41162109375 111 L 393 111 Q 383 111 383 101 L 383 81 Q 383 71 393 71 Z" opacity="0.2"/></g><g transform="translate(-158,2) scale(1,1)"><path fill="#ffffff" stroke="none" d="M 386 64 L 561.41162109375 64 Q 571.41162109375 64 571.41162109375 74 L 571.41162109375 94 Q 571.41162109375 104 561.41162109375 104 L 386 104 Q 376 104 376 94 L 376 74 Q 376 64 386 64 Z"/></g><g transform="translate(-158,2) scale(1,1)"><path fill="none" stroke="#000000" d="M 386 64 L 561.41162109375 64 Q 571.41162109375 64 571.41162109375 74 L 571.41162109375 94 Q 571.41162109375 104 561.41162109375 104 L 386 104 Q 376 104 376 94 L 376 74 Q 376 64 386 64 Z" stroke-miterlimit="10"/></g><g transform="translate(-158,2) scale(1,1)"><g><path fill="none" stroke="none"/><text fill="#000000" stroke="none" font-family="Arial" font-size="13px" font-style="normal" font-weight="bold" text-decoration="none" x="386.260498046875" y="83.5">La imagen se divide en celdas</text></g></g><g transform="translate(-158,2) scale(1,1)"><path fill="#C0C0C0" stroke="none" d="M 345 151 L 620 151 Q 630 151 630 161 L 630 181 Q 630 191 620 191 L 345 191 Q 335 191 335 181 L 335 161 Q 335 151 345 151 Z" opacity="0.2"/></g><g transform="translate(-158,2) scale(1,1)"><path fill="#ffffff" stroke="none" d="M 338 144 L 613 144 Q 623 144 623 154 L 623 174 Q 623 184 613 184 L 338 184 Q 328 184 328 174 L 328 154 Q 328 144 338 144 Z"/></g><g transform="translate(-158,2) scale(1,1)"><path fill="none" stroke="#000000" d="M 338 144 L 613 144 Q 623 144 623 154 L 623 174 Q 623 184 613 184 L 338 184 Q 328 184 328 174 L 328 154 Q 328 144 338 144 Z" stroke-miterlimit="10"/></g><g transform="translate(-158,2) scale(1,1)"><g><path fill="none" stroke="none"/><text fill="#000000" stroke="none" font-family="Arial" font-size="13px" font-style="normal" font-weight="bold" text-decoration="none" x="350.83203125" y="163.5">Cada celda se introduce en la red profunda</text></g></g><g transform="translate(-158,2) scale(1,1)"><path fill="#C0C0C0" stroke="none" d="M 450 231 L 513 231 Q 516 231 516 234 L 516 233 Q 516 236 513 236 L 450 236 Q 447 236 447 233 L 447 234 Q 447 231 450 231 Z" opacity="0.2"/></g><g transform="translate(-158,2) scale(1,1)"><path fill="#000000" stroke="none" d="M 443 224 L 506 224 Q 509 224 509 227 L 509 227 Q 509 230 506 230 L 443 230 Q 440 230 440 227 L 440 227 Q 440 224 443 224 Z"/></g><g transform="translate(-158,2) scale(1,1)"><path fill="#C0C0C0" stroke="none" d="M 585 287 L 834.076171875 287 Q 844.076171875 287 844.076171875 297 L 844.076171875 317 Q 844.076171875 327 834.076171875 327 L 585 327 Q 575 327 575 317 L 575 297 Q 575 287 585 287 Z" opacity="0.2"/></g><g transform="translate(-158,2) scale(1,1)"><path fill="#ffffff" stroke="none" d="M 578 280 L 827.076171875 280 Q 837.076171875 280 837.076171875 290 L 837.076171875 310 Q 837.076171875 320 827.076171875 320 L 578 320 Q 568 320 568 310 L 568 290 Q 568 280 578 280 Z"/></g><g transform="translate(-158,2) scale(1,1)"><path fill="none" stroke="#000000" d="M 578 280 L 827.076171875 280 Q 837.076171875 280 837.076171875 290 L 837.076171875 310 Q 837.076171875 320 827.076171875 320 L 578 320 Q 568 320 568 310 L 568 290 Q 568 280 578 280 Z" stroke-miterlimit="10"/></g><g transform="translate(-158,2) scale(1,1)"><g><path fill="none" stroke="none"/><text fill="#000000" stroke="none" font-family="Arial" font-size="13px" font-style="normal" font-weight="bold" text-decoration="none" x="581.142333984375" y="299.5">Predice el bbox  y la confianza (regresión)</text></g></g><g transform="translate(-158,2) scale(1,1)"><path fill="#C0C0C0" stroke="none" d="M 185 287 L 381 287 Q 391 287 391 297 L 391 317 Q 391 327 381 327 L 185 327 Q 175 327 175 317 L 175 297 Q 175 287 185 287 Z" opacity="0.2"/></g><g transform="translate(-158,2) scale(1,1)"><path fill="#ffffff" stroke="none" d="M 178 280 L 374 280 Q 384 280 384 290 L 384 310 Q 384 320 374 320 L 178 320 Q 168 320 168 310 L 168 290 Q 168 280 178 280 Z"/></g><g transform="translate(-158,2) scale(1,1)"><path fill="none" stroke="#000000" d="M 178 280 L 374 280 Q 384 280 384 290 L 384 310 Q 384 320 374 320 L 178 320 Q 168 320 168 310 L 168 290 Q 168 280 178 280 Z" stroke-miterlimit="10"/></g><g transform="translate(-158,2) scale(1,1)"><g><path fill="none" stroke="none"/><text fill="#000000" stroke="none" font-family="Arial" font-size="13px" font-style="normal" font-weight="bold" text-decoration="none" x="187.1328125" y="299.5">Predice la clase  (clasificación)</text></g></g><g transform="translate(-158,2) scale(1,1)"><path fill="none" stroke="#000000" d="M 486 230 L 637 279" stroke-miterlimit="10"/></g><g transform="translate(-158,2) scale(1,1)"><path fill="none" stroke="#000000" d="M 626.0342351917747 279.8671805871253 L 637 279 L 628.6328440695374 271.8592226168767" stroke-miterlimit="10"/></g><g transform="translate(-158,2) scale(1,1)"><path fill="none" stroke="#000000" d="M 463 230 L 332 279" stroke-miterlimit="10"/></g><g transform="translate(-158,2) scale(1,1)"><path fill="none" stroke="#000000" d="M 340.0438302043595 271.4968809390072 L 332 279 L 342.99335325229384 279.38234051613773" stroke-miterlimit="10"/></g><g transform="translate(-158,2) scale(1,1)"><path fill="none" stroke="#000000" d="M 475 185 L 474 223" stroke-miterlimit="10"/></g><g transform="translate(-158,2) scale(1,1)"><path fill="none" stroke="#000000" d="M 470.0592853332588 212.73010380211508 L 474 223 L 478.4754071800324 212.95158069281965" stroke-miterlimit="10"/></g><g transform="translate(-158,2) scale(1,1)"><path fill="none" stroke="#000000" d="M 474 105 L 474 143" stroke-miterlimit="10"/></g><g transform="translate(-158,2) scale(1,1)"><path fill="none" stroke="#000000" d="M 469.790482243984 132.83732514237585 L 474 143 L 478.209517756016 132.83732514237585" stroke-miterlimit="10"/></g><g transform="translate(-158,2) scale(1,1)"><path fill="none" stroke="#000000" d="M 473 28 L 473 63" stroke-miterlimit="10"/></g><g transform="translate(-158,2) scale(1,1)"><path fill="none" stroke="#000000" d="M 468.790482243984 52.837325142375846 L 473 63 L 477.209517756016 52.837325142375846" stroke-miterlimit="10"/></g><g transform="translate(-158,2) scale(1,1)"><path fill="#C0C0C0" stroke="none" d="M 450 367 L 515 367 Q 518 367 518 370 L 518 369 Q 518 372 515 372 L 450 372 Q 447 372 447 369 L 447 370 Q 447 367 450 367 Z" opacity="0.2"/></g><g transform="translate(-158,2) scale(1,1)"><path fill="#000000" stroke="none" d="M 443 360 L 508 360 Q 511 360 511 363 L 511 363 Q 511 366 508 366 L 443 366 Q 440 366 440 363 L 440 363 Q 440 360 443 360 Z"/></g><g transform="translate(-158,2) scale(1,1)"><path fill="none" stroke="#000000" d="M 343 321 L 465 359" stroke-miterlimit="10"/></g><g transform="translate(-158,2) scale(1,1)"><path fill="none" stroke="#000000" d="M 454.0452624424395 359.9968575851006 L 465 359 L 456.5489460286281 351.9587155452319" stroke-miterlimit="10"/></g><g transform="translate(-158,2) scale(1,1)"><path fill="none" stroke="#000000" d="M 625 321 L 486 359" stroke-miterlimit="10"/></g><g transform="translate(-158,2) scale(1,1)"><path fill="none" stroke="#000000" d="M 494.69288271746115 352.25954081234335 L 486 359 L 496.9130207174793 360.3805719176729" stroke-miterlimit="10"/></g><g transform="translate(-158,2) scale(1,1)"><path fill="#C0C0C0" stroke="none" d="M 393 431 L 578.498046875 431 Q 588.498046875 431 588.498046875 441 L 588.498046875 461 Q 588.498046875 471 578.498046875 471 L 393 471 Q 383 471 383 461 L 383 441 Q 383 431 393 431 Z" opacity="0.2"/></g><g transform="translate(-158,2) scale(1,1)"><path fill="#ffffff" stroke="none" d="M 386 424 L 571.498046875 424 Q 581.498046875 424 581.498046875 434 L 581.498046875 454 Q 581.498046875 464 571.498046875 464 L 386 464 Q 376 464 376 454 L 376 434 Q 376 424 386 424 Z"/></g><g transform="translate(-158,2) scale(1,1)"><path fill="none" stroke="#000000" d="M 386 424 L 571.498046875 424 Q 581.498046875 424 581.498046875 434 L 581.498046875 454 Q 581.498046875 464 571.498046875 464 L 386 464 Q 376 464 376 454 L 376 434 Q 376 424 386 424 Z" stroke-miterlimit="10"/></g><g transform="translate(-158,2) scale(1,1)"><g><path fill="none" stroke="none"/><text fill="#000000" stroke="none" font-family="Arial" font-size="13px" font-style="normal" font-weight="bold" text-decoration="none" x="386.96826171875" y="443.5">Creación de un tensor de salida</text></g></g><g transform="translate(-158,2) scale(1,1)"><path fill="none" stroke="#000000" d="M 475 366 L 477 423" stroke-miterlimit="10"/></g><g transform="translate(-158,2) scale(1,1)"><path fill="none" stroke="#000000" d="M 472.4367053428536 412.99118679003055 L 477 423 L 480.85056309577834 412.69596371098055" stroke-miterlimit="10"/></g></g></svg>