<svg version="1.1" xmlns="http://www.w3.org/2000/svg" xmlns:xlink="http://www.w3.org/1999/xlink" width="316" height="421"><defs/><g><text fill="#eeeeee" stroke="none" font-family="Arial" font-size="24px" font-style="normal" font-weight="normal" text-decoration="none" x="0" y="0"></text><text fill="#eeeeee" stroke="none" font-family="Arial" font-size="24px" font-style="normal" font-weight="normal" text-decoration="none" x="0" y="30"></text><text fill="#eeeeee" stroke="none" font-family="Arial" font-size="24px" font-style="normal" font-weight="normal" text-decoration="none" x="0" y="60"></text><text fill="#eeeeee" stroke="none" font-family="Arial" font-size="24px" font-style="normal" font-weight="normal" text-decoration="none" x="0" y="90"></text><text fill="#eeeeee" stroke="none" font-family="Arial" font-size="24px" font-style="normal" font-weight="normal" text-decoration="none" x="0" y="120"></text><text fill="#eeeeee" stroke="none" font-family="Arial" font-size="24px" font-style="normal" font-weight="normal" text-decoration="none" x="0" y="150"></text><text fill="#eeeeee" stroke="none" font-family="Arial" font-size="24px" font-style="normal" font-weight="normal" text-decoration="none" x="0" y="180"></text><text fill="#eeeeee" stroke="none" font-family="Arial" font-size="24px" font-style="normal" font-weight="normal" text-decoration="none" x="0" y="210"></text><text fill="#eeeeee" stroke="none" font-family="Arial" font-size="24px" font-style="normal" font-weight="normal" text-decoration="none" x="0" y="240"></text><text fill="#eeeeee" stroke="none" font-family="Arial" font-size="24px" font-style="normal" font-weight="normal" text-decoration="none" x="0" y="270"></text><text fill="#eeeeee" stroke="none" font-family="Arial" font-size="24px" font-style="normal" font-weight="normal" text-decoration="none" x="0" y="300"></text><text fill="#eeeeee" stroke="none" font-family="Arial" font-size="24px" font-style="normal" font-weight="normal" text-decoration="none" x="0" y="330"></text><text fill="#eeeeee" stroke="none" font-family="Arial" font-size="24px" font-style="normal" font-weight="normal" text-decoration="none" x="0" y="360"></text><text fill="#eeeeee" stroke="none" font-family="Arial" font-size="24px" font-style="normal" font-weight="normal" text-decoration="none" x="0" y="390"></text><text fill="#eeeeee" stroke="none" font-family="Arial" font-size="24px" font-style="normal" font-weight="normal" text-decoration="none" x="0" y="420"></text><text fill="#eeeeee" stroke="none" font-family="Arial" font-size="24px" font-style="normal" font-weight="normal" text-decoration="none" x="200" y="0"></text><text fill="#eeeeee" stroke="none" font-family="Arial" font-size="24px" font-style="normal" font-weight="normal" text-decoration="none" x="200" y="30"></text><text fill="#eeeeee" stroke="none" font-family="Arial" font-size="24px" font-style="normal" font-weight="normal" text-decoration="none" x="200" y="60"></text><text fill="#eeeeee" stroke="none" font-family="Arial" font-size="24px" font-style="normal" font-weight="normal" text-decoration="none" x="200" y="90"></text><text fill="#eeeeee" stroke="none" font-family="Arial" font-size="24px" font-style="normal" font-weight="normal" text-decoration="none" x="200" y="120"></text><text fill="#eeeeee" stroke="none" font-family="Arial" font-size="24px" font-style="normal" font-weight="normal" text-decoration="none" x="200" y="150"></text><text fill="#eeeeee" stroke="none" font-family="Arial" font-size="24px" font-style="normal" font-weight="normal" text-decoration="none" x="200" y="180"></text><text fill="#eeeeee" stroke="none" font-family="Arial" font-size="24px" font-style="normal" font-weight="normal" text-decoration="none" x="200" y="210"></text><text fill="#eeeeee" stroke="none" font-family="Arial" font-size="24px" font-style="normal" font-weight="normal" text-decoration="none" x="200" y="240"></text><text fill="#eeeeee" stroke="none" font-family="Arial" font-size="24px" font-style="normal" font-weight="normal" text-decoration="none" x="200" y="270"></text><text fill="#eeeeee" stroke="none" font-family="Arial" font-size="24px" font-style="normal" font-weight="normal" text-decoration="none" x="200" y="300"></text><text fill="#eeeeee" stroke="none" font-family="Arial" font-size="24px" font-style="normal" font-weight="normal" text-decoration="none" x="200" y="330"></text><text fill="#eeeeee" stroke="none" font-family="Arial" font-size="24px" font-style="normal" font-weight="normal" text-decoration="none" x="200" y="360"></text><text fill="#eeeeee" stroke="none" font-family="Arial" font-size="24px" font-style="normal" font-weight="normal" text-decoration="none" x="200" y="390"></text><text fill="#eeeeee" stroke="none" font-family="Arial" font-size="24px" font-style="normal" font-weight="normal" text-decoration="none" x="200" y="420"></text><g transform="translate(-302,-38) scale(1,1)"><path fill="#C0C0C0" stroke="none" d="M 455 64.5 C 455 59.2532944 459.2532944 55 464.5 55 C 469.7467056 55 474 59.2532944 474 64.5 C 474 69.7467056 469.7467056 74 464.5 74 C 459.2532944 74 455 69.7467056 455 64.5 Z" opacity="0.2"/></g><g transform="translate(-302,-38) scale(1,1)"><path fill="#000000" stroke="none" d="M 448 57.5 C 448 52.2532944 452.2532944 48 457.5 48 C 462.7467056 48 467 52.2532944 467 57.5 C 467 62.7467056 462.7467056 67 457.5 67 C 452.2532944 67 448 62.7467056 448 57.5 Z"/></g><g transform="translate(-302,-38) scale(1,1)"><path fill="#C0C0C0" stroke="none" d="M 455 443.5 C 455 436.59644 460.59644 431 467.5 431 C 474.40356 431 480 436.59644 480 443.5 C 480 450.40356 474.40356 456 467.5 456 C 460.59644 456 455 450.40356 455 443.5 Z" opacity="0.2"/></g><g transform="translate(-302,-38) scale(1,1)"><path fill="none" stroke="#000000" d="M 448 436.5 C 448 429.59644 453.59644 424 460.5 424 C 467.40356 424 473 429.59644 473 436.5 C 473 443.40356 467.40356 449 460.5 449 C 453.59644 449 448 443.40356 448 436.5 Z" stroke-miterlimit="10"/></g><g transform="translate(-302,-38) scale(1,1)"><path fill="#000000" stroke="none" d="M 453 436.5 C 453 432.357864 456.357864 429 460.5 429 C 464.642136 429 468 432.357864 468 436.5 C 468 440.642136 464.642136 444 460.5 444 C 456.357864 444 453 440.642136 453 436.5 Z"/></g><g transform="translate(-302,-38) scale(1,1)"><path fill="#C0C0C0" stroke="none" d="M 401 119 L 533 119 Q 543 119 543 129 L 543 149 Q 543 159 533 159 L 401 159 Q 391 159 391 149 L 391 129 Q 391 119 401 119 Z" opacity="0.2"/></g><g transform="translate(-302,-38) scale(1,1)"><path fill="#ffffff" stroke="none" d="M 394 112 L 526 112 Q 536 112 536 122 L 536 142 Q 536 152 526 152 L 394 152 Q 384 152 384 142 L 384 122 Q 384 112 394 112 Z"/></g><g transform="translate(-302,-38) scale(1,1)"><path fill="none" stroke="#000000" d="M 394 112 L 526 112 Q 536 112 536 122 L 536 142 Q 536 152 526 152 L 394 152 Q 384 152 384 142 L 384 122 Q 384 112 394 112 Z" stroke-miterlimit="10"/></g><g transform="translate(-302,-38) scale(1,1)"><g><path fill="none" stroke="none"/><text fill="#000000" stroke="none" font-family="Arial" font-size="13px" font-style="normal" font-weight="bold" text-decoration="none" x="410.142333984375" y="131.5">Cargar la imagen</text></g></g><g transform="translate(-302,-38) scale(1,1)"><path fill="#C0C0C0" stroke="none" d="M 337 207 L 591.1796875 207 Q 601.1796875 207 601.1796875 217 L 601.1796875 237 Q 601.1796875 247 591.1796875 247 L 337 247 Q 327 247 327 237 L 327 217 Q 327 207 337 207 Z" opacity="0.2"/></g><g transform="translate(-302,-38) scale(1,1)"><path fill="#ffffff" stroke="none" d="M 330 200 L 584.1796875 200 Q 594.1796875 200 594.1796875 210 L 594.1796875 230 Q 594.1796875 240 584.1796875 240 L 330 240 Q 320 240 320 230 L 320 210 Q 320 200 330 200 Z"/></g><g transform="translate(-302,-38) scale(1,1)"><path fill="none" stroke="#000000" d="M 330 200 L 584.1796875 200 Q 594.1796875 200 594.1796875 210 L 594.1796875 230 Q 594.1796875 240 584.1796875 240 L 330 240 Q 320 240 320 230 L 320 210 Q 320 200 330 200 Z" stroke-miterlimit="10"/></g><g transform="translate(-302,-38) scale(1,1)"><g><path fill="none" stroke="none"/><text fill="#000000" stroke="none" font-family="Arial" font-size="13px" font-style="normal" font-weight="bold" text-decoration="none" x="332.79638671875" y="219.5">Escalar los valores en un intervalo de 0 a 1</text></g></g><g transform="translate(-302,-38) scale(1,1)"><path fill="#C0C0C0" stroke="none" d="M 329 311 L 605 311 Q 615 311 615 321 L 615 348 Q 615 358 605 358 L 329 358 Q 319 358 319 348 L 319 321 Q 319 311 329 311 Z" opacity="0.2"/></g><g transform="translate(-302,-38) scale(1,1)"><path fill="#ffffff" stroke="none" d="M 322 304 L 598 304 Q 608 304 608 314 L 608 341 Q 608 351 598 351 L 322 351 Q 312 351 312 341 L 312 314 Q 312 304 322 304 Z"/></g><g transform="translate(-302,-38) scale(1,1)"><path fill="none" stroke="#000000" d="M 322 304 L 598 304 Q 608 304 608 314 L 608 341 Q 608 351 598 351 L 322 351 Q 312 351 312 341 L 312 314 Q 312 304 322 304 Z" stroke-miterlimit="10"/></g><g transform="translate(-302,-38) scale(1,1)"><g><path fill="none" stroke="none"/><text fill="#000000" stroke="none" font-family="Arial" font-size="13px" font-style="normal" font-weight="bold" text-decoration="none" x="341.14013671875" y="323.5">Añadir una dimensión a la matriz (tensor)</text></g></g><g transform="translate(-302,-38) scale(1,1)"><path fill="none" stroke="#000000" d="M 457 68 L 459 111" stroke-miterlimit="10"/></g><g transform="translate(-302,-38) scale(1,1)"><path fill="none" stroke="#000000" d="M 454.322856065764 101.04388004198225 L 459 111 L 462.73279974413725 100.65271987089511" stroke-miterlimit="10"/></g><g transform="translate(-302,-38) scale(1,1)"><path fill="none" stroke="#000000" d="M 459 153 L 458 199" stroke-miterlimit="10"/></g><g transform="translate(-302,-38) scale(1,1)"><path fill="none" stroke="#000000" d="M 454.0123521078249 188.74823604017186 L 458 199 L 462.42939894957703 188.9312153193404" stroke-miterlimit="10"/></g><g transform="translate(-302,-38) scale(1,1)"><path fill="none" stroke="#000000" d="M 458 241 L 459 303" stroke-miterlimit="10"/></g><g transform="translate(-302,-38) scale(1,1)"><path fill="none" stroke="#000000" d="M 454.62713688711733 292.90653339055456 L 459 303 L 463.04507752489906 292.7707601544613" stroke-miterlimit="10"/></g><g transform="translate(-302,-38) scale(1,1)"><path fill="none" stroke="#000000" d="M 460 352 L 460 423" stroke-miterlimit="10"/></g><g transform="translate(-302,-38) scale(1,1)"><path fill="none" stroke="#000000" d="M 455.790482243984 412.83732514237585 L 460 423 L 464.209517756016 412.83732514237585" stroke-miterlimit="10"/></g></g></svg>