<svg version="1.1" xmlns="http://www.w3.org/2000/svg" xmlns:xlink="http://www.w3.org/1999/xlink" width="901" height="348"><defs/><g><text fill="#eeeeee" stroke="none" font-family="Arial" font-size="24px" font-style="normal" font-weight="normal" text-decoration="none" x="0" y="0"></text><text fill="#eeeeee" stroke="none" font-family="Arial" font-size="24px" font-style="normal" font-weight="normal" text-decoration="none" x="0" y="30"></text><text fill="#eeeeee" stroke="none" font-family="Arial" font-size="24px" font-style="normal" font-weight="normal" text-decoration="none" x="0" y="60"></text><text fill="#eeeeee" stroke="none" font-family="Arial" font-size="24px" font-style="normal" font-weight="normal" text-decoration="none" x="0" y="90"></text><text fill="#eeeeee" stroke="none" font-family="Arial" font-size="24px" font-style="normal" font-weight="normal" text-decoration="none" x="0" y="120"></text><text fill="#eeeeee" stroke="none" font-family="Arial" font-size="24px" font-style="normal" font-weight="normal" text-decoration="none" x="0" y="150"></text><text fill="#eeeeee" stroke="none" font-family="Arial" font-size="24px" font-style="normal" font-weight="normal" text-decoration="none" x="0" y="180"></text><text fill="#eeeeee" stroke="none" font-family="Arial" font-size="24px" font-style="normal" font-weight="normal" text-decoration="none" x="0" y="210"></text><text fill="#eeeeee" stroke="none" font-family="Arial" font-size="24px" font-style="normal" font-weight="normal" text-decoration="none" x="0" y="240"></text><text fill="#eeeeee" stroke="none" font-family="Arial" font-size="24px" font-style="normal" font-weight="normal" text-decoration="none" x="0" y="270"></text><text fill="#eeeeee" stroke="none" font-family="Arial" font-size="24px" font-style="normal" font-weight="normal" text-decoration="none" x="0" y="300"></text><text fill="#eeeeee" stroke="none" font-family="Arial" font-size="24px" font-style="normal" font-weight="normal" text-decoration="none" x="0" y="330"></text><text fill="#eeeeee" stroke="none" font-family="Arial" font-size="24px" font-style="normal" font-weight="normal" text-decoration="none" x="200" y="0"></text><text fill="#eeeeee" stroke="none" font-family="Arial" font-size="24px" font-style="normal" font-weight="normal" text-decoration="none" x="200" y="30"></text><text fill="#eeeeee" stroke="none" font-family="Arial" font-size="24px" font-style="normal" font-weight="normal" text-decoration="none" x="200" y="60"></text><text fill="#eeeeee" stroke="none" font-family="Arial" font-size="24px" font-style="normal" font-weight="normal" text-decoration="none" x="200" y="90"></text><text fill="#eeeeee" stroke="none" font-family="Arial" font-size="24px" font-style="normal" font-weight="normal" text-decoration="none" x="200" y="120"></text><text fill="#eeeeee" stroke="none" font-family="Arial" font-size="24px" font-style="normal" font-weight="normal" text-decoration="none" x="200" y="150"></text><text fill="#eeeeee" stroke="none" font-family="Arial" font-size="24px" font-style="normal" font-weight="normal" text-decoration="none" x="200" y="180"></text><text fill="#eeeeee" stroke="none" font-family="Arial" font-size="24px" font-style="normal" font-weight="normal" text-decoration="none" x="200" y="210"></text><text fill="#eeeeee" stroke="none" font-family="Arial" font-size="24px" font-style="normal" font-weight="normal" text-decoration="none" x="200" y="240"></text><text fill="#eeeeee" stroke="none" font-family="Arial" font-size="24px" font-style="normal" font-weight="normal" text-decoration="none" x="200" y="270"></text><text fill="#eeeeee" stroke="none" font-family="Arial" font-size="24px" font-style="normal" font-weight="normal" text-decoration="none" x="200" y="300"></text><text fill="#eeeeee" stroke="none" font-family="Arial" font-size="24px" font-style="normal" font-weight="normal" text-decoration="none" x="200" y="330"></text><text fill="#eeeeee" stroke="none" font-family="Arial" font-size="24px" font-style="normal" font-weight="normal" text-decoration="none" x="400" y="0"></text><text fill="#eeeeee" stroke="none" font-family="Arial" font-size="24px" font-style="normal" font-weight="normal" text-decoration="none" x="400" y="30"></text><text fill="#eeeeee" stroke="none" font-family="Arial" font-size="24px" font-style="normal" font-weight="normal" text-decoration="none" x="400" y="60"></text><text fill="#eeeeee" stroke="none" font-family="Arial" font-size="24px" font-style="normal" font-weight="normal" text-decoration="none" x="400" y="90"></text><text fill="#eeeeee" stroke="none" font-family="Arial" font-size="24px" font-style="normal" font-weight="normal" text-decoration="none" x="400" y="120"></text><text fill="#eeeeee" stroke="none" font-family="Arial" font-size="24px" font-style="normal" font-weight="normal" text-decoration="none" x="400" y="150"></text><text fill="#eeeeee" stroke="none" font-family="Arial" font-size="24px" font-style="normal" font-weight="normal" text-decoration="none" x="400" y="180"></text><text fill="#eeeeee" stroke="none" font-family="Arial" font-size="24px" font-style="normal" font-weight="normal" text-decoration="none" x="400" y="210"></text><text fill="#eeeeee" stroke="none" font-family="Arial" font-size="24px" font-style="normal" font-weight="normal" text-decoration="none" x="400" y="240"></text><text fill="#eeeeee" stroke="none" font-family="Arial" font-size="24px" font-style="normal" font-weight="normal" text-decoration="none" x="400" y="270"></text><text fill="#eeeeee" stroke="none" font-family="Arial" font-size="24px" font-style="normal" font-weight="normal" text-decoration="none" x="400" y="300"></text><text fill="#eeeeee" stroke="none" font-family="Arial" font-size="24px" font-style="normal" font-weight="normal" text-decoration="none" x="400" y="330"></text><text fill="#eeeeee" stroke="none" font-family="Arial" font-size="24px" font-style="normal" font-weight="normal" text-decoration="none" x="600" y="0"></text><text fill="#eeeeee" stroke="none" font-family="Arial" font-size="24px" font-style="normal" font-weight="normal" text-decoration="none" x="600" y="30"></text><text fill="#eeeeee" stroke="none" font-family="Arial" font-size="24px" font-style="normal" font-weight="normal" text-decoration="none" x="600" y="60"></text><text fill="#eeeeee" stroke="none" font-family="Arial" font-size="24px" font-style="normal" font-weight="normal" text-decoration="none" x="600" y="90"></text><text fill="#eeeeee" stroke="none" font-family="Arial" font-size="24px" font-style="normal" font-weight="normal" text-decoration="none" x="600" y="120"></text><text fill="#eeeeee" stroke="none" font-family="Arial" font-size="24px" font-style="normal" font-weight="normal" text-decoration="none" x="600" y="150"></text><text fill="#eeeeee" stroke="none" font-family="Arial" font-size="24px" font-style="normal" font-weight="normal" text-decoration="none" x="600" y="180"></text><text fill="#eeeeee" stroke="none" font-family="Arial" font-size="24px" font-style="normal" font-weight="normal" text-decoration="none" x="600" y="210"></text><text fill="#eeeeee" stroke="none" font-family="Arial" font-size="24px" font-style="normal" font-weight="normal" text-decoration="none" x="600" y="240"></text><text fill="#eeeeee" stroke="none" font-family="Arial" font-size="24px" font-style="normal" font-weight="normal" text-decoration="none" x="600" y="270"></text><text fill="#eeeeee" stroke="none" font-family="Arial" font-size="24px" font-style="normal" font-weight="normal" text-decoration="none" x="600" y="300"></text><text fill="#eeeeee" stroke="none" font-family="Arial" font-size="24px" font-style="normal" font-weight="normal" text-decoration="none" x="600" y="330"></text><text fill="#eeeeee" stroke="none" font-family="Arial" font-size="24px" font-style="normal" font-weight="normal" text-decoration="none" x="800" y="0"></text><text fill="#eeeeee" stroke="none" font-family="Arial" font-size="24px" font-style="normal" font-weight="normal" text-decoration="none" x="800" y="30"></text><text fill="#eeeeee" stroke="none" font-family="Arial" font-size="24px" font-style="normal" font-weight="normal" text-decoration="none" x="800" y="60"></text><text fill="#eeeeee" stroke="none" font-family="Arial" font-size="24px" font-style="normal" font-weight="normal" text-decoration="none" x="800" y="90"></text><text fill="#eeeeee" stroke="none" font-family="Arial" font-size="24px" font-style="normal" font-weight="normal" text-decoration="none" x="800" y="120"></text><text fill="#eeeeee" stroke="none" font-family="Arial" font-size="24px" font-style="normal" font-weight="normal" text-decoration="none" x="800" y="150"></text><text fill="#eeeeee" stroke="none" font-family="Arial" font-size="24px" font-style="normal" font-weight="normal" text-decoration="none" x="800" y="180"></text><text fill="#eeeeee" stroke="none" font-family="Arial" font-size="24px" font-style="normal" font-weight="normal" text-decoration="none" x="800" y="210"></text><text fill="#eeeeee" stroke="none" font-family="Arial" font-size="24px" font-style="normal" font-weight="normal" text-decoration="none" x="800" y="240"></text><text fill="#eeeeee" stroke="none" font-family="Arial" font-size="24px" font-style="normal" font-weight="normal" text-decoration="none" x="800" y="270"></text><text fill="#eeeeee" stroke="none" font-family="Arial" font-size="24px" font-style="normal" font-weight="normal" text-decoration="none" x="800" y="300"></text><text fill="#eeeeee" stroke="none" font-family="Arial" font-size="24px" font-style="normal" font-weight="normal" text-decoration="none" x="800" y="330"></text><g transform="translate(-38,-70) scale(1,1)"><path fill="#C0C0C0" stroke="none" d="M 87 112.5 C 87 107.2532944 91.2532944 103 96.5 103 C 101.7467056 103 106 107.2532944 106 112.5 C 106 117.7467056 101.7467056 122 96.5 122 C 91.2532944 122 87 117.7467056 87 112.5 Z" opacity="0.2"/></g><g transform="translate(-38,-70) scale(1,1)"><path fill="#000000" stroke="none" d="M 80 105.5 C 80 100.2532944 84.2532944 96 89.5 96 C 94.7467056 96 99 100.2532944 99 105.5 C 99 110.7467056 94.7467056 115 89.5 115 C 84.2532944 115 80 110.7467056 80 105.5 Z"/></g><g transform="translate(-38,-70) scale(1,1)"><path fill="#C0C0C0" stroke="none" d="M 185 87 L 403.02978515625 87 Q 413.02978515625 87 413.02978515625 97 L 413.02978515625 124 Q 413.02978515625 134 403.02978515625 134 L 185 134 Q 175 134 175 124 L 175 97 Q 175 87 185 87 Z" opacity="0.2"/></g><g transform="translate(-38,-70) scale(1,1)"><path fill="#ffffff" stroke="none" d="M 178 80 L 396.02978515625 80 Q 406.02978515625 80 406.02978515625 90 L 406.02978515625 117 Q 406.02978515625 127 396.02978515625 127 L 178 127 Q 168 127 168 117 L 168 90 Q 168 80 178 80 Z"/></g><g transform="translate(-38,-70) scale(1,1)"><path fill="none" stroke="#000000" d="M 178 80 L 396.02978515625 80 Q 406.02978515625 80 406.02978515625 90 L 406.02978515625 117 Q 406.02978515625 127 396.02978515625 127 L 178 127 Q 168 127 168 117 L 168 90 Q 168 80 178 80 Z" stroke-miterlimit="10"/></g><g transform="translate(-38,-70) scale(1,1)"><g><path fill="none" stroke="none"/><text fill="#000000" stroke="none" font-family="Arial" font-size="13px" font-style="normal" font-weight="bold" text-decoration="none" x="178.61279296875" y="99.5">Cargar la imagen de la base de datos</text></g></g><g transform="translate(-38,-70) scale(1,1)"><path fill="none" stroke="#000000" d="M 100 105 L 167 104" stroke-miterlimit="10"/></g><g transform="translate(-38,-70) scale(1,1)"><path fill="none" stroke="#000000" d="M 156.90127853271014 108.36071378630824 L 167 104 L 156.77563528005294 99.94261585827739" stroke-miterlimit="10"/></g><g transform="translate(-38,-70) scale(1,1)"><path fill="#C0C0C0" stroke="none" d="M 473 87 L 660 87 Q 670 87 670 97 L 670 124 Q 670 134 660 134 L 473 134 Q 463 134 463 124 L 463 97 Q 463 87 473 87 Z" opacity="0.2"/></g><g transform="translate(-38,-70) scale(1,1)"><path fill="#ffffff" stroke="none" d="M 466 80 L 653 80 Q 663 80 663 90 L 663 117 Q 663 127 653 127 L 466 127 Q 456 127 456 117 L 456 90 Q 456 80 466 80 Z"/></g><g transform="translate(-38,-70) scale(1,1)"><path fill="none" stroke="#000000" d="M 466 80 L 653 80 Q 663 80 663 90 L 663 117 Q 663 127 653 127 L 466 127 Q 456 127 456 117 L 456 90 Q 456 80 466 80 Z" stroke-miterlimit="10"/></g><g transform="translate(-38,-70) scale(1,1)"><g><path fill="none" stroke="none"/><text fill="#000000" stroke="none" font-family="Arial" font-size="13px" font-style="normal" font-weight="bold" text-decoration="none" x="496.27099609375" y="99.5">Prepocesar la imagen</text></g></g><g transform="translate(-38,-70) scale(1,1)"><path fill="none" stroke="#000000" d="M 407 103 L 455 103" stroke-miterlimit="10"/></g><g transform="translate(-38,-70) scale(1,1)"><path fill="none" stroke="#000000" d="M 444.83732514237585 107.20951775601598 L 455 103 L 444.83732514237585 98.79048224398402" stroke-miterlimit="10"/></g><g transform="translate(-38,-70) scale(1,1)"><path fill="#C0C0C0" stroke="none" d="M 737 239 L 900 239 Q 910 239 910 249 L 910 269 Q 910 279 900 279 L 737 279 Q 727 279 727 269 L 727 249 Q 727 239 737 239 Z" opacity="0.2"/></g><g transform="translate(-38,-70) scale(1,1)"><path fill="#ffffff" stroke="none" d="M 730 232 L 893 232 Q 903 232 903 242 L 903 262 Q 903 272 893 272 L 730 272 Q 720 272 720 262 L 720 242 Q 720 232 730 232 Z"/></g><g transform="translate(-38,-70) scale(1,1)"><path fill="none" stroke="#000000" d="M 730 232 L 893 232 Q 903 232 903 242 L 903 262 Q 903 272 893 272 L 730 272 Q 720 272 720 262 L 720 242 Q 720 232 730 232 Z" stroke-miterlimit="10"/></g><g transform="translate(-38,-70) scale(1,1)"><g><path fill="none" stroke="none"/><text fill="#000000" stroke="none" font-family="Arial" font-size="13px" font-style="normal" font-weight="bold" text-decoration="none" x="761.642333984375" y="251.5">Cargar el modelo</text></g></g><g transform="translate(-38,-70) scale(1,1)"><path fill="none" stroke="#000000" d="M 664 103 L 808 104 L 811 231" stroke-miterlimit="10"/></g><g transform="translate(-38,-70) scale(1,1)"><path fill="none" stroke="#000000" d="M 806.5516599746361 220.93956904408438 L 811 231 L 814.9683475536286 220.74074965245464" stroke-miterlimit="10"/></g><g transform="translate(-38,-70) scale(1,1)"><path fill="#C0C0C0" stroke="none" d="M 265 239 L 592.5966796875 239 Q 602.5966796875 239 602.5966796875 249 L 602.5966796875 269 Q 602.5966796875 279 592.5966796875 279 L 265 279 Q 255 279 255 269 L 255 249 Q 255 239 265 239 Z" opacity="0.2"/></g><g transform="translate(-38,-70) scale(1,1)"><path fill="#ffffff" stroke="none" d="M 258 232 L 585.5966796875 232 Q 595.5966796875 232 595.5966796875 242 L 595.5966796875 262 Q 595.5966796875 272 585.5966796875 272 L 258 272 Q 248 272 248 262 L 248 242 Q 248 232 258 232 Z"/></g><g transform="translate(-38,-70) scale(1,1)"><path fill="none" stroke="#000000" d="M 258 232 L 585.5966796875 232 Q 595.5966796875 232 595.5966796875 242 L 595.5966796875 262 Q 595.5966796875 272 585.5966796875 272 L 258 272 Q 248 272 248 262 L 248 242 Q 248 232 258 232 Z" stroke-miterlimit="10"/></g><g transform="translate(-38,-70) scale(1,1)"><g><path fill="none" stroke="none"/><text fill="#000000" stroke="none" font-family="Arial" font-size="13px" font-style="normal" font-weight="bold" text-decoration="none" x="263.408447265625" y="251.5">Insertar la imagen preprocesada a la red neuronal Yolo</text></g></g><g transform="translate(-38,-70) scale(1,1)"><path fill="none" stroke="#000000" d="M 719 252 L 597 252" stroke-miterlimit="10"/></g><g transform="translate(-38,-70) scale(1,1)"><path fill="none" stroke="#000000" d="M 607.1626748576241 247.790482243984 L 597 252 L 607.1626748576241 256.209517756016" stroke-miterlimit="10"/></g><g transform="translate(-38,-70) scale(1,1)"><path fill="#C0C0C0" stroke="none" d="M 65 375 L 252.65625 375 Q 262.65625 375 262.65625 385 L 262.65625 405 Q 262.65625 415 252.65625 415 L 65 415 Q 55 415 55 405 L 55 385 Q 55 375 65 375 Z" opacity="0.2"/></g><g transform="translate(-38,-70) scale(1,1)"><path fill="#ffffff" stroke="none" d="M 58 368 L 245.65625 368 Q 255.65625 368 255.65625 378 L 255.65625 398 Q 255.65625 408 245.65625 408 L 58 408 Q 48 408 48 398 L 48 378 Q 48 368 58 368 Z"/></g><g transform="translate(-38,-70) scale(1,1)"><path fill="none" stroke="#000000" d="M 58 368 L 245.65625 368 Q 255.65625 368 255.65625 378 L 255.65625 398 Q 255.65625 408 245.65625 408 L 58 408 Q 48 408 48 398 L 48 378 Q 48 368 58 368 Z" stroke-miterlimit="10"/></g><g transform="translate(-38,-70) scale(1,1)"><g><path fill="none" stroke="none"/><text fill="#000000" stroke="none" font-family="Arial" font-size="13px" font-style="normal" font-weight="bold" text-decoration="none" x="67.6455078125" y="387.5">La red retorna el fichero XML</text></g></g><g transform="translate(-38,-70) scale(1,1)"><path fill="#C0C0C0" stroke="none" d="M 705 375 L 844 375 Q 854 375 854 385 L 854 405 Q 854 415 844 415 L 705 415 Q 695 415 695 405 L 695 385 Q 695 375 705 375 Z" opacity="0.2"/></g><g transform="translate(-38,-70) scale(1,1)"><path fill="#ffffff" stroke="none" d="M 698 368 L 837 368 Q 847 368 847 378 L 847 398 Q 847 408 837 408 L 698 408 Q 688 408 688 398 L 688 378 Q 688 368 698 368 Z"/></g><g transform="translate(-38,-70) scale(1,1)"><path fill="none" stroke="#000000" d="M 698 368 L 837 368 Q 847 368 847 378 L 847 398 Q 847 408 837 408 L 698 408 Q 688 408 688 398 L 688 378 Q 688 368 698 368 Z" stroke-miterlimit="10"/></g><g transform="translate(-38,-70) scale(1,1)"><g><path fill="none" stroke="none"/><text fill="#000000" stroke="none" font-family="Arial" font-size="13px" font-style="normal" font-weight="bold" text-decoration="none" x="700.3037109375" y="387.5">Guardar el fichero XML</text></g></g><g transform="translate(-38,-70) scale(1,1)"><path fill="#C0C0C0" stroke="none" d="M 911 395.5 C 911 388.59644 916.59644 383 923.5 383 C 930.40356 383 936 388.59644 936 395.5 C 936 402.40356 930.40356 408 923.5 408 C 916.59644 408 911 402.40356 911 395.5 Z" opacity="0.2"/></g><g transform="translate(-38,-70) scale(1,1)"><path fill="none" stroke="#000000" d="M 904 388.5 C 904 381.59644 909.59644 376 916.5 376 C 923.40356 376 929 381.59644 929 388.5 C 929 395.40356 923.40356 401 916.5 401 C 909.59644 401 904 395.40356 904 388.5 Z" stroke-miterlimit="10"/></g><g transform="translate(-38,-70) scale(1,1)"><path fill="#000000" stroke="none" d="M 909 388.5 C 909 384.357864 912.357864 381 916.5 381 C 920.642136 381 924 384.357864 924 388.5 C 924 392.642136 920.642136 396 916.5 396 C 912.357864 396 909 392.642136 909 388.5 Z"/></g><g transform="translate(-38,-70) scale(1,1)"><path fill="none" stroke="#000000" d="M 848 388 L 903 388" stroke-miterlimit="10"/></g><g transform="translate(-38,-70) scale(1,1)"><path fill="none" stroke="#000000" d="M 892.8373251423759 392.209517756016 L 903 388 L 892.8373251423758 383.790482243984" stroke-miterlimit="10"/></g><g transform="translate(-38,-70) scale(1,1)"><path fill="#C0C0C0" stroke="none" d="M 337 375 L 613 375 Q 623 375 623 385 L 623 405 Q 623 415 613 415 L 337 415 Q 327 415 327 405 L 327 385 Q 327 375 337 375 Z" opacity="0.2"/></g><g transform="translate(-38,-70) scale(1,1)"><path fill="#ffffff" stroke="none" d="M 330 368 L 606 368 Q 616 368 616 378 L 616 398 Q 616 408 606 408 L 330 408 Q 320 408 320 398 L 320 378 Q 320 368 330 368 Z"/></g><g transform="translate(-38,-70) scale(1,1)"><path fill="none" stroke="#000000" d="M 330 368 L 606 368 Q 616 368 616 378 L 616 398 Q 616 408 606 408 L 330 408 Q 320 408 320 398 L 320 378 Q 320 368 330 368 Z" stroke-miterlimit="10"/></g><g transform="translate(-38,-70) scale(1,1)"><g><path fill="none" stroke="none"/><text fill="#000000" stroke="none" font-family="Arial" font-size="13px" font-style="normal" font-weight="bold" text-decoration="none" x="340.827880859375" y="387.5">Verificación de los resultados (test unitarios)</text></g></g><g transform="translate(-38,-70) scale(1,1)"><path fill="none" stroke="#000000" d="M 247 249 L 152 248 L 151 367" stroke-miterlimit="10"/></g><g transform="translate(-38,-70) scale(1,1)"><path fill="none" stroke="#000000" d="M 146.8760284806492 356.8023110996862 L 151 367 L 155.29476674708954 356.8730567994042" stroke-miterlimit="10"/></g><g transform="translate(-38,-70) scale(1,1)"><path fill="none" stroke="#000000" d="M 257 388 L 319 388" stroke-miterlimit="10"/></g><g transform="translate(-38,-70) scale(1,1)"><path fill="none" stroke="#000000" d="M 308.83732514237585 392.209517756016 L 319 388 L 308.83732514237585 383.790482243984" stroke-miterlimit="10"/></g><g transform="translate(-38,-70) scale(1,1)"><path fill="none" stroke="#000000" d="M 617 388 L 687 388" stroke-miterlimit="10"/></g><g transform="translate(-38,-70) scale(1,1)"><path fill="none" stroke="#000000" d="M 676.8373251423759 392.209517756016 L 687 388 L 676.8373251423758 383.790482243984" stroke-miterlimit="10"/></g></g></svg>