<svg version="1.1" xmlns="http://www.w3.org/2000/svg" xmlns:xlink="http://www.w3.org/1999/xlink" width="1315.00634765625" height="419"><defs/><g><text fill="#eeeeee" stroke="none" font-family="Arial" font-size="24px" font-style="normal" font-weight="normal" text-decoration="none" x="0" y="0"></text><text fill="#eeeeee" stroke="none" font-family="Arial" font-size="24px" font-style="normal" font-weight="normal" text-decoration="none" x="0" y="30"></text><text fill="#eeeeee" stroke="none" font-family="Arial" font-size="24px" font-style="normal" font-weight="normal" text-decoration="none" x="0" y="60"></text><text fill="#eeeeee" stroke="none" font-family="Arial" font-size="24px" font-style="normal" font-weight="normal" text-decoration="none" x="0" y="90"></text><text fill="#eeeeee" stroke="none" font-family="Arial" font-size="24px" font-style="normal" font-weight="normal" text-decoration="none" x="0" y="120"></text><text fill="#eeeeee" stroke="none" font-family="Arial" font-size="24px" font-style="normal" font-weight="normal" text-decoration="none" x="0" y="150"></text><text fill="#eeeeee" stroke="none" font-family="Arial" font-size="24px" font-style="normal" font-weight="normal" text-decoration="none" x="0" y="180"></text><text fill="#eeeeee" stroke="none" font-family="Arial" font-size="24px" font-style="normal" font-weight="normal" text-decoration="none" x="0" y="210"></text><text fill="#eeeeee" stroke="none" font-family="Arial" font-size="24px" font-style="normal" font-weight="normal" text-decoration="none" x="0" y="240"></text><text fill="#eeeeee" stroke="none" font-family="Arial" font-size="24px" font-style="normal" font-weight="normal" text-decoration="none" x="0" y="270"></text><text fill="#eeeeee" stroke="none" font-family="Arial" font-size="24px" font-style="normal" font-weight="normal" text-decoration="none" x="0" y="300"></text><text fill="#eeeeee" stroke="none" font-family="Arial" font-size="24px" font-style="normal" font-weight="normal" text-decoration="none" x="0" y="330"></text><text fill="#eeeeee" stroke="none" font-family="Arial" font-size="24px" font-style="normal" font-weight="normal" text-decoration="none" x="0" y="360"></text><text fill="#eeeeee" stroke="none" font-family="Arial" font-size="24px" font-style="normal" font-weight="normal" text-decoration="none" x="0" y="390"></text><text fill="#eeeeee" stroke="none" font-family="Arial" font-size="24px" font-style="normal" font-weight="normal" text-decoration="none" x="200" y="0"></text><text fill="#eeeeee" stroke="none" font-family="Arial" font-size="24px" font-style="normal" font-weight="normal" text-decoration="none" x="200" y="30"></text><text fill="#eeeeee" stroke="none" font-family="Arial" font-size="24px" font-style="normal" font-weight="normal" text-decoration="none" x="200" y="60"></text><text fill="#eeeeee" stroke="none" font-family="Arial" font-size="24px" font-style="normal" font-weight="normal" text-decoration="none" x="200" y="90"></text><text fill="#eeeeee" stroke="none" font-family="Arial" font-size="24px" font-style="normal" font-weight="normal" text-decoration="none" x="200" y="120"></text><text fill="#eeeeee" stroke="none" font-family="Arial" font-size="24px" font-style="normal" font-weight="normal" text-decoration="none" x="200" y="150"></text><text fill="#eeeeee" stroke="none" font-family="Arial" font-size="24px" font-style="normal" font-weight="normal" text-decoration="none" x="200" y="180"></text><text fill="#eeeeee" stroke="none" font-family="Arial" font-size="24px" font-style="normal" font-weight="normal" text-decoration="none" x="200" y="210"></text><text fill="#eeeeee" stroke="none" font-family="Arial" font-size="24px" font-style="normal" font-weight="normal" text-decoration="none" x="200" y="240"></text><text fill="#eeeeee" stroke="none" font-family="Arial" font-size="24px" font-style="normal" font-weight="normal" text-decoration="none" x="200" y="270"></text><text fill="#eeeeee" stroke="none" font-family="Arial" font-size="24px" font-style="normal" font-weight="normal" text-decoration="none" x="200" y="300"></text><text fill="#eeeeee" stroke="none" font-family="Arial" font-size="24px" font-style="normal" font-weight="normal" text-decoration="none" x="200" y="330"></text><text fill="#eeeeee" stroke="none" font-family="Arial" font-size="24px" font-style="normal" font-weight="normal" text-decoration="none" x="200" y="360"></text><text fill="#eeeeee" stroke="none" font-family="Arial" font-size="24px" font-style="normal" font-weight="normal" text-decoration="none" x="200" y="390"></text><text fill="#eeeeee" stroke="none" font-family="Arial" font-size="24px" font-style="normal" font-weight="normal" text-decoration="none" x="400" y="0"></text><text fill="#eeeeee" stroke="none" font-family="Arial" font-size="24px" font-style="normal" font-weight="normal" text-decoration="none" x="400" y="30"></text><text fill="#eeeeee" stroke="none" font-family="Arial" font-size="24px" font-style="normal" font-weight="normal" text-decoration="none" x="400" y="60"></text><text fill="#eeeeee" stroke="none" font-family="Arial" font-size="24px" font-style="normal" font-weight="normal" text-decoration="none" x="400" y="90"></text><text fill="#eeeeee" stroke="none" font-family="Arial" font-size="24px" font-style="normal" font-weight="normal" text-decoration="none" x="400" y="120"></text><text fill="#eeeeee" stroke="none" font-family="Arial" font-size="24px" font-style="normal" font-weight="normal" text-decoration="none" x="400" y="150"></text><text fill="#eeeeee" stroke="none" font-family="Arial" font-size="24px" font-style="normal" font-weight="normal" text-decoration="none" x="400" y="180"></text><text fill="#eeeeee" stroke="none" font-family="Arial" font-size="24px" font-style="normal" font-weight="normal" text-decoration="none" x="400" y="210"></text><text fill="#eeeeee" stroke="none" font-family="Arial" font-size="24px" font-style="normal" font-weight="normal" text-decoration="none" x="400" y="240"></text><text fill="#eeeeee" stroke="none" font-family="Arial" font-size="24px" font-style="normal" font-weight="normal" text-decoration="none" x="400" y="270"></text><text fill="#eeeeee" stroke="none" font-family="Arial" font-size="24px" font-style="normal" font-weight="normal" text-decoration="none" x="400" y="300"></text><text fill="#eeeeee" stroke="none" font-family="Arial" font-size="24px" font-style="normal" font-weight="normal" text-decoration="none" x="400" y="330"></text><text fill="#eeeeee" stroke="none" font-family="Arial" font-size="24px" font-style="normal" font-weight="normal" text-decoration="none" x="400" y="360"></text><text fill="#eeeeee" stroke="none" font-family="Arial" font-size="24px" font-style="normal" font-weight="normal" text-decoration="none" x="400" y="390"></text><text fill="#eeeeee" stroke="none" font-family="Arial" font-size="24px" font-style="normal" font-weight="normal" text-decoration="none" x="600" y="0"></text><text fill="#eeeeee" stroke="none" font-family="Arial" font-size="24px" font-style="normal" font-weight="normal" text-decoration="none" x="600" y="30"></text><text fill="#eeeeee" stroke="none" font-family="Arial" font-size="24px" font-style="normal" font-weight="normal" text-decoration="none" x="600" y="60"></text><text fill="#eeeeee" stroke="none" font-family="Arial" font-size="24px" font-style="normal" font-weight="normal" text-decoration="none" x="600" y="90"></text><text fill="#eeeeee" stroke="none" font-family="Arial" font-size="24px" font-style="normal" font-weight="normal" text-decoration="none" x="600" y="120"></text><text fill="#eeeeee" stroke="none" font-family="Arial" font-size="24px" font-style="normal" font-weight="normal" text-decoration="none" x="600" y="150"></text><text fill="#eeeeee" stroke="none" font-family="Arial" font-size="24px" font-style="normal" font-weight="normal" text-decoration="none" x="600" y="180"></text><text fill="#eeeeee" stroke="none" font-family="Arial" font-size="24px" font-style="normal" font-weight="normal" text-decoration="none" x="600" y="210"></text><text fill="#eeeeee" stroke="none" font-family="Arial" font-size="24px" font-style="normal" font-weight="normal" text-decoration="none" x="600" y="240"></text><text fill="#eeeeee" stroke="none" font-family="Arial" font-size="24px" font-style="normal" font-weight="normal" text-decoration="none" x="600" y="270"></text><text fill="#eeeeee" stroke="none" font-family="Arial" font-size="24px" font-style="normal" font-weight="normal" text-decoration="none" x="600" y="300"></text><text fill="#eeeeee" stroke="none" font-family="Arial" font-size="24px" font-style="normal" font-weight="normal" text-decoration="none" x="600" y="330"></text><text fill="#eeeeee" stroke="none" font-family="Arial" font-size="24px" font-style="normal" font-weight="normal" text-decoration="none" x="600" y="360"></text><text fill="#eeeeee" stroke="none" font-family="Arial" font-size="24px" font-style="normal" font-weight="normal" text-decoration="none" x="600" y="390"></text><text fill="#eeeeee" stroke="none" font-family="Arial" font-size="24px" font-style="normal" font-weight="normal" text-decoration="none" x="800" y="0"></text><text fill="#eeeeee" stroke="none" font-family="Arial" font-size="24px" font-style="normal" font-weight="normal" text-decoration="none" x="800" y="30"></text><text fill="#eeeeee" stroke="none" font-family="Arial" font-size="24px" font-style="normal" font-weight="normal" text-decoration="none" x="800" y="60"></text><text fill="#eeeeee" stroke="none" font-family="Arial" font-size="24px" font-style="normal" font-weight="normal" text-decoration="none" x="800" y="90"></text><text fill="#eeeeee" stroke="none" font-family="Arial" font-size="24px" font-style="normal" font-weight="normal" text-decoration="none" x="800" y="120"></text><text fill="#eeeeee" stroke="none" font-family="Arial" font-size="24px" font-style="normal" font-weight="normal" text-decoration="none" x="800" y="150"></text><text fill="#eeeeee" stroke="none" font-family="Arial" font-size="24px" font-style="normal" font-weight="normal" text-decoration="none" x="800" y="180"></text><text fill="#eeeeee" stroke="none" font-family="Arial" font-size="24px" font-style="normal" font-weight="normal" text-decoration="none" x="800" y="210"></text><text fill="#eeeeee" stroke="none" font-family="Arial" font-size="24px" font-style="normal" font-weight="normal" text-decoration="none" x="800" y="240"></text><text fill="#eeeeee" stroke="none" font-family="Arial" font-size="24px" font-style="normal" font-weight="normal" text-decoration="none" x="800" y="270"></text><text fill="#eeeeee" stroke="none" font-family="Arial" font-size="24px" font-style="normal" font-weight="normal" text-decoration="none" x="800" y="300"></text><text fill="#eeeeee" stroke="none" font-family="Arial" font-size="24px" font-style="normal" font-weight="normal" text-decoration="none" x="800" y="330"></text><text fill="#eeeeee" stroke="none" font-family="Arial" font-size="24px" font-style="normal" font-weight="normal" text-decoration="none" x="800" y="360"></text><text fill="#eeeeee" stroke="none" font-family="Arial" font-size="24px" font-style="normal" font-weight="normal" text-decoration="none" x="800" y="390"></text><text fill="#eeeeee" stroke="none" font-family="Arial" font-size="24px" font-style="normal" font-weight="normal" text-decoration="none" x="1000" y="0"></text><text fill="#eeeeee" stroke="none" font-family="Arial" font-size="24px" font-style="normal" font-weight="normal" text-decoration="none" x="1000" y="30"></text><text fill="#eeeeee" stroke="none" font-family="Arial" font-size="24px" font-style="normal" font-weight="normal" text-decoration="none" x="1000" y="60"></text><text fill="#eeeeee" stroke="none" font-family="Arial" font-size="24px" font-style="normal" font-weight="normal" text-decoration="none" x="1000" y="90"></text><text fill="#eeeeee" stroke="none" font-family="Arial" font-size="24px" font-style="normal" font-weight="normal" text-decoration="none" x="1000" y="120"></text><text fill="#eeeeee" stroke="none" font-family="Arial" font-size="24px" font-style="normal" font-weight="normal" text-decoration="none" x="1000" y="150"></text><text fill="#eeeeee" stroke="none" font-family="Arial" font-size="24px" font-style="normal" font-weight="normal" text-decoration="none" x="1000" y="180"></text><text fill="#eeeeee" stroke="none" font-family="Arial" font-size="24px" font-style="normal" font-weight="normal" text-decoration="none" x="1000" y="210"></text><text fill="#eeeeee" stroke="none" font-family="Arial" font-size="24px" font-style="normal" font-weight="normal" text-decoration="none" x="1000" y="240"></text><text fill="#eeeeee" stroke="none" font-family="Arial" font-size="24px" font-style="normal" font-weight="normal" text-decoration="none" x="1000" y="270"></text><text fill="#eeeeee" stroke="none" font-family="Arial" font-size="24px" font-style="normal" font-weight="normal" text-decoration="none" x="1000" y="300"></text><text fill="#eeeeee" stroke="none" font-family="Arial" font-size="24px" font-style="normal" font-weight="normal" text-decoration="none" x="1000" y="330"></text><text fill="#eeeeee" stroke="none" font-family="Arial" font-size="24px" font-style="normal" font-weight="normal" text-decoration="none" x="1000" y="360"></text><text fill="#eeeeee" stroke="none" font-family="Arial" font-size="24px" font-style="normal" font-weight="normal" text-decoration="none" x="1000" y="390"></text><text fill="#eeeeee" stroke="none" font-family="Arial" font-size="24px" font-style="normal" font-weight="normal" text-decoration="none" x="1200" y="0"></text><text fill="#eeeeee" stroke="none" font-family="Arial" font-size="24px" font-style="normal" font-weight="normal" text-decoration="none" x="1200" y="30"></text><text fill="#eeeeee" stroke="none" font-family="Arial" font-size="24px" font-style="normal" font-weight="normal" text-decoration="none" x="1200" y="60"></text><text fill="#eeeeee" stroke="none" font-family="Arial" font-size="24px" font-style="normal" font-weight="normal" text-decoration="none" x="1200" y="90"></text><text fill="#eeeeee" stroke="none" font-family="Arial" font-size="24px" font-style="normal" font-weight="normal" text-decoration="none" x="1200" y="120"></text><text fill="#eeeeee" stroke="none" font-family="Arial" font-size="24px" font-style="normal" font-weight="normal" text-decoration="none" x="1200" y="150"></text><text fill="#eeeeee" stroke="none" font-family="Arial" font-size="24px" font-style="normal" font-weight="normal" text-decoration="none" x="1200" y="180"></text><text fill="#eeeeee" stroke="none" font-family="Arial" font-size="24px" font-style="normal" font-weight="normal" text-decoration="none" x="1200" y="210"></text><text fill="#eeeeee" stroke="none" font-family="Arial" font-size="24px" font-style="normal" font-weight="normal" text-decoration="none" x="1200" y="240"></text><text fill="#eeeeee" stroke="none" font-family="Arial" font-size="24px" font-style="normal" font-weight="normal" text-decoration="none" x="1200" y="270"></text><text fill="#eeeeee" stroke="none" font-family="Arial" font-size="24px" font-style="normal" font-weight="normal" text-decoration="none" x="1200" y="300"></text><text fill="#eeeeee" stroke="none" font-family="Arial" font-size="24px" font-style="normal" font-weight="normal" text-decoration="none" x="1200" y="330"></text><text fill="#eeeeee" stroke="none" font-family="Arial" font-size="24px" font-style="normal" font-weight="normal" text-decoration="none" x="1200" y="360"></text><text fill="#eeeeee" stroke="none" font-family="Arial" font-size="24px" font-style="normal" font-weight="normal" text-decoration="none" x="1200" y="390"></text><g transform="translate(-102,-190) scale(1,1)"><path fill="#ffffff" stroke="none" d="M 131.66887180397728 369.68 C 131.66887180397728 364.886167936 135.55471412892274 361 140.34814453125 361 C 145.14157493357726 361 149.02741725852272 364.886167936 149.02741725852272 369.68 C 149.02741725852272 374.473832064 145.14157493357726 378.36 140.34814453125 378.36 C 135.55471412892274 378.36 131.66887180397728 374.473832064 131.66887180397728 369.68 Z"/></g><g transform="translate(-102,-190) scale(1,1)"><path fill="none" stroke="#000000" d="M 131.66887180397728 369.68 C 131.66887180397728 364.886167936 135.55471412892274 361 140.34814453125 361 C 145.14157493357726 361 149.02741725852272 364.886167936 149.02741725852272 369.68 C 149.02741725852272 374.473832064 145.14157493357726 378.36 140.34814453125 378.36 C 135.55471412892274 378.36 131.66887180397728 374.473832064 131.66887180397728 369.68 Z" stroke-miterlimit="10"/></g><g transform="translate(-102,-190) scale(1,1)"><path fill="none" stroke="#000000" d="M 140.34814453125 378.36 L 140.34814453125 395.64" stroke-miterlimit="10"/></g><g transform="translate(-102,-190) scale(1,1)"><path fill="none" stroke="#000000" d="M 131.15832634943183 384.84 L 149.53796271306817 384.84" stroke-miterlimit="10"/></g><g transform="translate(-102,-190) scale(1,1)"><path fill="none" stroke="#000000" d="M 140.34814453125 395.64 L 127.58450816761365 413" stroke-miterlimit="10"/></g><g transform="translate(-102,-190) scale(1,1)"><path fill="none" stroke="#000000" d="M 140.34814453125 395.64 L 153.11178089488635 413" stroke-miterlimit="10"/></g><g transform="translate(-102,-190) scale(1,1)"><g><path fill="none" stroke="none"/><text fill="#000000" stroke="none" font-family="Arial" font-size="13px" font-style="normal" font-weight="bold" text-decoration="none" x="117.22998046875" y="433.5">Cámara</text></g></g><g transform="translate(-102,-190) scale(1,1)"><path fill="#C0C0C0" stroke="none" d="M 239 402.5 C 239 387.312168 283.5476624 375 338.5 375 C 393.4523376 375 438 387.312168 438 402.5 C 438 417.687832 393.4523376 430 338.5 430 C 283.5476624 430 239 417.687832 239 402.5 Z" opacity="0.2"/></g><g transform="translate(-102,-190) scale(1,1)"><path fill="#ffffff" stroke="none" d="M 232 395.5 C 232 380.312168 276.5476624 368 331.5 368 C 386.4523376 368 431 380.312168 431 395.5 C 431 410.687832 386.4523376 423 331.5 423 C 276.5476624 423 232 410.687832 232 395.5 Z"/></g><g transform="translate(-102,-190) scale(1,1)"><path fill="none" stroke="#000000" d="M 232 395.5 C 232 380.312168 276.5476624 368 331.5 368 C 386.4523376 368 431 380.312168 431 395.5 C 431 410.687832 386.4523376 423 331.5 423 C 276.5476624 423 232 410.687832 232 395.5 Z" stroke-miterlimit="10"/></g><g transform="translate(-102,-190) scale(1,1)"><g><path fill="none" stroke="none"/><text fill="#000000" stroke="none" font-family="Arial" font-size="13px" font-style="normal" font-weight="bold" text-decoration="none" x="269.35009765625" y="402.5">Captura de imágenes</text></g></g><g transform="translate(-102,-190) scale(1,1)"><path fill="#C0C0C0" stroke="none" d="M 495 403 C 495 387.5360256 614.5399583999999 375 762 375 C 909.4600416000001 375 1029 387.5360256 1029 403 C 1029 418.4639744 909.4600416000001 431 762 431 C 614.5399583999999 431 495 418.4639744 495 403 Z" opacity="0.2"/></g><g transform="translate(-102,-190) scale(1,1)"><path fill="#ffffff" stroke="none" d="M 488 396 C 488 380.5360256 607.5399583999999 368 755 368 C 902.4600416000001 368 1022 380.5360256 1022 396 C 1022 411.4639744 902.4600416000001 424 755 424 C 607.5399583999999 424 488 411.4639744 488 396 Z"/></g><g transform="translate(-102,-190) scale(1,1)"><path fill="none" stroke="#000000" d="M 488 396 C 488 380.5360256 607.5399583999999 368 755 368 C 902.4600416000001 368 1022 380.5360256 1022 396 C 1022 411.4639744 902.4600416000001 424 755 424 C 607.5399583999999 424 488 411.4639744 488 396 Z" stroke-miterlimit="10"/></g><g transform="translate(-102,-190) scale(1,1)"><g><path fill="none" stroke="none"/><text fill="#000000" stroke="none" font-family="Arial" font-size="13px" font-style="normal" font-weight="bold" text-decoration="none" x="582.296142578125" y="403">Insertar las imágenes al sistema de detección de anomalías</text></g></g><g transform="translate(-102,-190) scale(1,1)"><path fill="#C0C0C0" stroke="none" d="M 663 231 C 663 217.7451648 708.2192352 207 764 207 C 819.7807648 207 865 217.7451648 865 231 C 865 244.2548352 819.7807648 255 764 255 C 708.2192352 255 663 244.2548352 663 231 Z" opacity="0.2"/></g><g transform="translate(-102,-190) scale(1,1)"><path fill="#ffffff" stroke="none" d="M 656 224 C 656 210.7451648 701.2192352 200 757 200 C 812.7807648 200 858 210.7451648 858 224 C 858 237.2548352 812.7807648 248 757 248 C 701.2192352 248 656 237.2548352 656 224 Z"/></g><g transform="translate(-102,-190) scale(1,1)"><path fill="none" stroke="#000000" d="M 656 224 C 656 210.7451648 701.2192352 200 757 200 C 812.7807648 200 858 210.7451648 858 224 C 858 237.2548352 812.7807648 248 757 248 C 701.2192352 248 656 237.2548352 656 224 Z" stroke-miterlimit="10"/></g><g transform="translate(-102,-190) scale(1,1)"><g><path fill="none" stroke="none"/><text fill="#000000" stroke="none" font-family="Arial" font-size="13px" font-style="normal" font-weight="bold" text-decoration="none" x="693.767822265625" y="231">No detecta anomalías</text></g></g><g transform="translate(-102,-190) scale(1,1)"><path fill="#C0C0C0" stroke="none" d="M 663 567 C 663 553.7451648 709.1146656 543 766 543 C 822.8853344 543 869 553.7451648 869 567 C 869 580.2548352 822.8853344 591 766 591 C 709.1146656 591 663 580.2548352 663 567 Z" opacity="0.2"/></g><g transform="translate(-102,-190) scale(1,1)"><path fill="#ffffff" stroke="none" d="M 656 560 C 656 546.7451648 702.1146656 536 759 536 C 815.8853344 536 862 546.7451648 862 560 C 862 573.2548352 815.8853344 584 759 584 C 702.1146656 584 656 573.2548352 656 560 Z"/></g><g transform="translate(-102,-190) scale(1,1)"><path fill="none" stroke="#000000" d="M 656 560 C 656 546.7451648 702.1146656 536 759 536 C 815.8853344 536 862 546.7451648 862 560 C 862 573.2548352 815.8853344 584 759 584 C 702.1146656 584 656 573.2548352 656 560 Z" stroke-miterlimit="10"/></g><g transform="translate(-102,-190) scale(1,1)"><g><path fill="none" stroke="none"/><text fill="#000000" stroke="none" font-family="Arial" font-size="13px" font-style="normal" font-weight="bold" text-decoration="none" x="704.8037109375" y="567">Detecta anomalías</text></g></g><g transform="translate(-102,-190) scale(1,1)"><path fill="#C0C0C0" stroke="none" d="M 943 567 C 943 553.7451648 1000.0836879999999 543 1070.5 543 C 1140.916312 543 1198 553.7451648 1198 567 C 1198 580.2548352 1140.916312 591 1070.5 591 C 1000.0836879999999 591 943 580.2548352 943 567 Z" opacity="0.2"/></g><g transform="translate(-102,-190) scale(1,1)"><path fill="#ffffff" stroke="none" d="M 936 560 C 936 546.7451648 993.0836879999999 536 1063.5 536 C 1133.916312 536 1191 546.7451648 1191 560 C 1191 573.2548352 1133.916312 584 1063.5 584 C 993.0836879999999 584 936 573.2548352 936 560 Z"/></g><g transform="translate(-102,-190) scale(1,1)"><path fill="none" stroke="#000000" d="M 936 560 C 936 546.7451648 993.0836879999999 536 1063.5 536 C 1133.916312 536 1191 546.7451648 1191 560 C 1191 573.2548352 1133.916312 584 1063.5 584 C 993.0836879999999 584 936 573.2548352 936 560 Z" stroke-miterlimit="10"/></g><g transform="translate(-102,-190) scale(1,1)"><g><path fill="none" stroke="none"/><text fill="#000000" stroke="none" font-family="Arial" font-size="13px" font-style="normal" font-weight="bold" text-decoration="none" x="983.281494140625" y="567">Localización de la anomalía</text></g></g><g transform="translate(-102,-190) scale(1,1)"><path fill="#ffffff" stroke="none" d="M 1354.8239011008523 529.6800000000001 C 1354.8239011008523 524.8861679360001 1358.7097434257978 521 1363.503173828125 521 C 1368.2966042304522 521 1372.1824465553977 524.8861679360001 1372.1824465553977 529.6800000000001 C 1372.1824465553977 534.473832064 1368.2966042304522 538.36 1363.503173828125 538.36 C 1358.7097434257978 538.36 1354.8239011008523 534.473832064 1354.8239011008523 529.6800000000001 Z"/></g><g transform="translate(-102,-190) scale(1,1)"><path fill="none" stroke="#000000" d="M 1354.8239011008523 529.6800000000001 C 1354.8239011008523 524.8861679360001 1358.7097434257978 521 1363.503173828125 521 C 1368.2966042304522 521 1372.1824465553977 524.8861679360001 1372.1824465553977 529.6800000000001 C 1372.1824465553977 534.473832064 1368.2966042304522 538.36 1363.503173828125 538.36 C 1358.7097434257978 538.36 1354.8239011008523 534.473832064 1354.8239011008523 529.6800000000001 Z" stroke-miterlimit="10"/></g><g transform="translate(-102,-190) scale(1,1)"><path fill="none" stroke="#000000" d="M 1363.503173828125 538.36 L 1363.503173828125 555.64" stroke-miterlimit="10"/></g><g transform="translate(-102,-190) scale(1,1)"><path fill="none" stroke="#000000" d="M 1354.3133556463067 544.84 L 1372.6929920099433 544.84" stroke-miterlimit="10"/></g><g transform="translate(-102,-190) scale(1,1)"><path fill="none" stroke="#000000" d="M 1363.503173828125 555.64 L 1350.7395374644886 573" stroke-miterlimit="10"/></g><g transform="translate(-102,-190) scale(1,1)"><path fill="none" stroke="#000000" d="M 1363.503173828125 555.64 L 1376.2668101917614 573" stroke-miterlimit="10"/></g><g transform="translate(-102,-190) scale(1,1)"><g><path fill="none" stroke="none"/><text fill="#000000" stroke="none" font-family="Arial" font-size="13px" font-style="normal" font-weight="bold" text-decoration="none" x="1326.658203125" y="593.5">Fichero XML</text></g></g><g transform="translate(-102,-190) scale(1,1)"><path fill="none" stroke="#000000" d="M 170 398 L 231 397" stroke-miterlimit="10"/></g><g transform="translate(-102,-190) scale(1,1)"><path fill="none" stroke="#000000" d="M 220.9076896678519 401.3755310717234 L 231 397 L 220.769691234191 392.95762661840706" stroke-miterlimit="10"/></g><g transform="translate(-102,-190) scale(1,1)"><path fill="none" stroke="#000000" d="M 432 395 L 487 395" stroke-miterlimit="10"/></g><g transform="translate(-102,-190) scale(1,1)"><path fill="none" stroke="#000000" d="M 476.83732514237585 399.209517756016 L 487 395 L 476.83732514237585 390.790482243984" stroke-miterlimit="10"/></g><g transform="translate(-102,-190) scale(1,1)"><path fill="none" stroke="#000000" d="M 755 367 L 757 249" stroke-miterlimit="10" stroke-dasharray="3"/></g><g transform="translate(-102,-190) scale(1,1)"><path fill="none" stroke="#000000" d="M 761.0366892537772 259.23255294970124 L 757 249 L 752.6188627653046 259.0898779244729" stroke-miterlimit="10"/></g><g transform="translate(-102,-190) scale(1,1)"><g><path fill="none" stroke="none"/><text fill="#000000" stroke="none" font-family="Arial" font-size="13px" font-style="normal" font-weight="normal" text-decoration="none" x="698.5" y="313.5">«include»</text></g></g><g transform="translate(-102,-190) scale(1,1)"><path fill="none" stroke="#000000" d="M 756 425 L 758 535" stroke-miterlimit="10" stroke-dasharray="3"/></g><g transform="translate(-102,-190) scale(1,1)"><path fill="none" stroke="#000000" d="M 753.6064324869807 524.9155285459009 L 758 535 L 762.0240767678188 524.7624804680675" stroke-miterlimit="10"/></g><g transform="translate(-102,-190) scale(1,1)"><g><path fill="none" stroke="none"/><text fill="#000000" stroke="none" font-family="Arial" font-size="13px" font-style="normal" font-weight="normal" text-decoration="none" x="758.5" y="485.5">«include»</text></g></g><g transform="translate(-102,-190) scale(1,1)"><path fill="none" stroke="#000000" d="M 863 560 L 935 560" stroke-miterlimit="10" stroke-dasharray="3"/></g><g transform="translate(-102,-190) scale(1,1)"><path fill="none" stroke="#000000" d="M 924.8373251423759 564.209517756016 L 935 560 L 924.8373251423758 555.790482243984" stroke-miterlimit="10"/></g><g transform="translate(-102,-190) scale(1,1)"><g><path fill="none" stroke="none"/><text fill="#000000" stroke="none" font-family="Arial" font-size="13px" font-style="normal" font-weight="normal" text-decoration="none" x="871.5" y="536.5">«include»</text></g></g><g transform="translate(-102,-190) scale(1,1)"><path fill="none" stroke="#000000" d="M 1192 560 L 1319 559" stroke-miterlimit="10"/></g><g transform="translate(-102,-190) scale(1,1)"><path fill="none" stroke="#000000" d="M 1308.8707849529058 563.2894058481008 L 1319 559 L 1308.8044953896497 554.8706313145562" stroke-miterlimit="10"/></g></g></svg>