<svg version="1.1" xmlns="http://www.w3.org/2000/svg" xmlns:xlink="http://www.w3.org/1999/xlink" width="980" height="692"><defs/><g><text fill="#eeeeee" stroke="none" font-family="Arial" font-size="24px" font-style="normal" font-weight="normal" text-decoration="none" x="0" y="0">UNREGISTERED</text><text fill="#eeeeee" stroke="none" font-family="Arial" font-size="24px" font-style="normal" font-weight="normal" text-decoration="none" x="0" y="30">UNREGISTERED</text><text fill="#eeeeee" stroke="none" font-family="Arial" font-size="24px" font-style="normal" font-weight="normal" text-decoration="none" x="0" y="60">UNREGISTERED</text><text fill="#eeeeee" stroke="none" font-family="Arial" font-size="24px" font-style="normal" font-weight="normal" text-decoration="none" x="0" y="90">UNREGISTERED</text><text fill="#eeeeee" stroke="none" font-family="Arial" font-size="24px" font-style="normal" font-weight="normal" text-decoration="none" x="0" y="120">UNREGISTERED</text><text fill="#eeeeee" stroke="none" font-family="Arial" font-size="24px" font-style="normal" font-weight="normal" text-decoration="none" x="0" y="150">UNREGISTERED</text><text fill="#eeeeee" stroke="none" font-family="Arial" font-size="24px" font-style="normal" font-weight="normal" text-decoration="none" x="0" y="180">UNREGISTERED</text><text fill="#eeeeee" stroke="none" font-family="Arial" font-size="24px" font-style="normal" font-weight="normal" text-decoration="none" x="0" y="210">UNREGISTERED</text><text fill="#eeeeee" stroke="none" font-family="Arial" font-size="24px" font-style="normal" font-weight="normal" text-decoration="none" x="0" y="240">UNREGISTERED</text><text fill="#eeeeee" stroke="none" font-family="Arial" font-size="24px" font-style="normal" font-weight="normal" text-decoration="none" x="0" y="270">UNREGISTERED</text><text fill="#eeeeee" stroke="none" font-family="Arial" font-size="24px" font-style="normal" font-weight="normal" text-decoration="none" x="0" y="300">UNREGISTERED</text><text fill="#eeeeee" stroke="none" font-family="Arial" font-size="24px" font-style="normal" font-weight="normal" text-decoration="none" x="0" y="330">UNREGISTERED</text><text fill="#eeeeee" stroke="none" font-family="Arial" font-size="24px" font-style="normal" font-weight="normal" text-decoration="none" x="0" y="360">UNREGISTERED</text><text fill="#eeeeee" stroke="none" font-family="Arial" font-size="24px" font-style="normal" font-weight="normal" text-decoration="none" x="0" y="390">UNREGISTERED</text><text fill="#eeeeee" stroke="none" font-family="Arial" font-size="24px" font-style="normal" font-weight="normal" text-decoration="none" x="0" y="420">UNREGISTERED</text><text fill="#eeeeee" stroke="none" font-family="Arial" font-size="24px" font-style="normal" font-weight="normal" text-decoration="none" x="0" y="450">UNREGISTERED</text><text fill="#eeeeee" stroke="none" font-family="Arial" font-size="24px" font-style="normal" font-weight="normal" text-decoration="none" x="0" y="480">UNREGISTERED</text><text fill="#eeeeee" stroke="none" font-family="Arial" font-size="24px" font-style="normal" font-weight="normal" text-decoration="none" x="0" y="510">UNREGISTERED</text><text fill="#eeeeee" stroke="none" font-family="Arial" font-size="24px" font-style="normal" font-weight="normal" text-decoration="none" x="0" y="540">UNREGISTERED</text><text fill="#eeeeee" stroke="none" font-family="Arial" font-size="24px" font-style="normal" font-weight="normal" text-decoration="none" x="0" y="570">UNREGISTERED</text><text fill="#eeeeee" stroke="none" font-family="Arial" font-size="24px" font-style="normal" font-weight="normal" text-decoration="none" x="0" y="600">UNREGISTERED</text><text fill="#eeeeee" stroke="none" font-family="Arial" font-size="24px" font-style="normal" font-weight="normal" text-decoration="none" x="0" y="630">UNREGISTERED</text><text fill="#eeeeee" stroke="none" font-family="Arial" font-size="24px" font-style="normal" font-weight="normal" text-decoration="none" x="0" y="660">UNREGISTERED</text><text fill="#eeeeee" stroke="none" font-family="Arial" font-size="24px" font-style="normal" font-weight="normal" text-decoration="none" x="0" y="690">UNREGISTERED</text><text fill="#eeeeee" stroke="none" font-family="Arial" font-size="24px" font-style="normal" font-weight="normal" text-decoration="none" x="200" y="0">UNREGISTERED</text><text fill="#eeeeee" stroke="none" font-family="Arial" font-size="24px" font-style="normal" font-weight="normal" text-decoration="none" x="200" y="30">UNREGISTERED</text><text fill="#eeeeee" stroke="none" font-family="Arial" font-size="24px" font-style="normal" font-weight="normal" text-decoration="none" x="200" y="60">UNREGISTERED</text><text fill="#eeeeee" stroke="none" font-family="Arial" font-size="24px" font-style="normal" font-weight="normal" text-decoration="none" x="200" y="90">UNREGISTERED</text><text fill="#eeeeee" stroke="none" font-family="Arial" font-size="24px" font-style="normal" font-weight="normal" text-decoration="none" x="200" y="120">UNREGISTERED</text><text fill="#eeeeee" stroke="none" font-family="Arial" font-size="24px" font-style="normal" font-weight="normal" text-decoration="none" x="200" y="150">UNREGISTERED</text><text fill="#eeeeee" stroke="none" font-family="Arial" font-size="24px" font-style="normal" font-weight="normal" text-decoration="none" x="200" y="180">UNREGISTERED</text><text fill="#eeeeee" stroke="none" font-family="Arial" font-size="24px" font-style="normal" font-weight="normal" text-decoration="none" x="200" y="210">UNREGISTERED</text><text fill="#eeeeee" stroke="none" font-family="Arial" font-size="24px" font-style="normal" font-weight="normal" text-decoration="none" x="200" y="240">UNREGISTERED</text><text fill="#eeeeee" stroke="none" font-family="Arial" font-size="24px" font-style="normal" font-weight="normal" text-decoration="none" x="200" y="270">UNREGISTERED</text><text fill="#eeeeee" stroke="none" font-family="Arial" font-size="24px" font-style="normal" font-weight="normal" text-decoration="none" x="200" y="300">UNREGISTERED</text><text fill="#eeeeee" stroke="none" font-family="Arial" font-size="24px" font-style="normal" font-weight="normal" text-decoration="none" x="200" y="330">UNREGISTERED</text><text fill="#eeeeee" stroke="none" font-family="Arial" font-size="24px" font-style="normal" font-weight="normal" text-decoration="none" x="200" y="360">UNREGISTERED</text><text fill="#eeeeee" stroke="none" font-family="Arial" font-size="24px" font-style="normal" font-weight="normal" text-decoration="none" x="200" y="390">UNREGISTERED</text><text fill="#eeeeee" stroke="none" font-family="Arial" font-size="24px" font-style="normal" font-weight="normal" text-decoration="none" x="200" y="420">UNREGISTERED</text><text fill="#eeeeee" stroke="none" font-family="Arial" font-size="24px" font-style="normal" font-weight="normal" text-decoration="none" x="200" y="450">UNREGISTERED</text><text fill="#eeeeee" stroke="none" font-family="Arial" font-size="24px" font-style="normal" font-weight="normal" text-decoration="none" x="200" y="480">UNREGISTERED</text><text fill="#eeeeee" stroke="none" font-family="Arial" font-size="24px" font-style="normal" font-weight="normal" text-decoration="none" x="200" y="510">UNREGISTERED</text><text fill="#eeeeee" stroke="none" font-family="Arial" font-size="24px" font-style="normal" font-weight="normal" text-decoration="none" x="200" y="540">UNREGISTERED</text><text fill="#eeeeee" stroke="none" font-family="Arial" font-size="24px" font-style="normal" font-weight="normal" text-decoration="none" x="200" y="570">UNREGISTERED</text><text fill="#eeeeee" stroke="none" font-family="Arial" font-size="24px" font-style="normal" font-weight="normal" text-decoration="none" x="200" y="600">UNREGISTERED</text><text fill="#eeeeee" stroke="none" font-family="Arial" font-size="24px" font-style="normal" font-weight="normal" text-decoration="none" x="200" y="630">UNREGISTERED</text><text fill="#eeeeee" stroke="none" font-family="Arial" font-size="24px" font-style="normal" font-weight="normal" text-decoration="none" x="200" y="660">UNREGISTERED</text><text fill="#eeeeee" stroke="none" font-family="Arial" font-size="24px" font-style="normal" font-weight="normal" text-decoration="none" x="200" y="690">UNREGISTERED</text><text fill="#eeeeee" stroke="none" font-family="Arial" font-size="24px" font-style="normal" font-weight="normal" text-decoration="none" x="400" y="0">UNREGISTERED</text><text fill="#eeeeee" stroke="none" font-family="Arial" font-size="24px" font-style="normal" font-weight="normal" text-decoration="none" x="400" y="30">UNREGISTERED</text><text fill="#eeeeee" stroke="none" font-family="Arial" font-size="24px" font-style="normal" font-weight="normal" text-decoration="none" x="400" y="60">UNREGISTERED</text><text fill="#eeeeee" stroke="none" font-family="Arial" font-size="24px" font-style="normal" font-weight="normal" text-decoration="none" x="400" y="90">UNREGISTERED</text><text fill="#eeeeee" stroke="none" font-family="Arial" font-size="24px" font-style="normal" font-weight="normal" text-decoration="none" x="400" y="120">UNREGISTERED</text><text fill="#eeeeee" stroke="none" font-family="Arial" font-size="24px" font-style="normal" font-weight="normal" text-decoration="none" x="400" y="150">UNREGISTERED</text><text fill="#eeeeee" stroke="none" font-family="Arial" font-size="24px" font-style="normal" font-weight="normal" text-decoration="none" x="400" y="180">UNREGISTERED</text><text fill="#eeeeee" stroke="none" font-family="Arial" font-size="24px" font-style="normal" font-weight="normal" text-decoration="none" x="400" y="210">UNREGISTERED</text><text fill="#eeeeee" stroke="none" font-family="Arial" font-size="24px" font-style="normal" font-weight="normal" text-decoration="none" x="400" y="240">UNREGISTERED</text><text fill="#eeeeee" stroke="none" font-family="Arial" font-size="24px" font-style="normal" font-weight="normal" text-decoration="none" x="400" y="270">UNREGISTERED</text><text fill="#eeeeee" stroke="none" font-family="Arial" font-size="24px" font-style="normal" font-weight="normal" text-decoration="none" x="400" y="300">UNREGISTERED</text><text fill="#eeeeee" stroke="none" font-family="Arial" font-size="24px" font-style="normal" font-weight="normal" text-decoration="none" x="400" y="330">UNREGISTERED</text><text fill="#eeeeee" stroke="none" font-family="Arial" font-size="24px" font-style="normal" font-weight="normal" text-decoration="none" x="400" y="360">UNREGISTERED</text><text fill="#eeeeee" stroke="none" font-family="Arial" font-size="24px" font-style="normal" font-weight="normal" text-decoration="none" x="400" y="390">UNREGISTERED</text><text fill="#eeeeee" stroke="none" font-family="Arial" font-size="24px" font-style="normal" font-weight="normal" text-decoration="none" x="400" y="420">UNREGISTERED</text><text fill="#eeeeee" stroke="none" font-family="Arial" font-size="24px" font-style="normal" font-weight="normal" text-decoration="none" x="400" y="450">UNREGISTERED</text><text fill="#eeeeee" stroke="none" font-family="Arial" font-size="24px" font-style="normal" font-weight="normal" text-decoration="none" x="400" y="480">UNREGISTERED</text><text fill="#eeeeee" stroke="none" font-family="Arial" font-size="24px" font-style="normal" font-weight="normal" text-decoration="none" x="400" y="510">UNREGISTERED</text><text fill="#eeeeee" stroke="none" font-family="Arial" font-size="24px" font-style="normal" font-weight="normal" text-decoration="none" x="400" y="540">UNREGISTERED</text><text fill="#eeeeee" stroke="none" font-family="Arial" font-size="24px" font-style="normal" font-weight="normal" text-decoration="none" x="400" y="570">UNREGISTERED</text><text fill="#eeeeee" stroke="none" font-family="Arial" font-size="24px" font-style="normal" font-weight="normal" text-decoration="none" x="400" y="600">UNREGISTERED</text><text fill="#eeeeee" stroke="none" font-family="Arial" font-size="24px" font-style="normal" font-weight="normal" text-decoration="none" x="400" y="630">UNREGISTERED</text><text fill="#eeeeee" stroke="none" font-family="Arial" font-size="24px" font-style="normal" font-weight="normal" text-decoration="none" x="400" y="660">UNREGISTERED</text><text fill="#eeeeee" stroke="none" font-family="Arial" font-size="24px" font-style="normal" font-weight="normal" text-decoration="none" x="400" y="690">UNREGISTERED</text><text fill="#eeeeee" stroke="none" font-family="Arial" font-size="24px" font-style="normal" font-weight="normal" text-decoration="none" x="600" y="0">UNREGISTERED</text><text fill="#eeeeee" stroke="none" font-family="Arial" font-size="24px" font-style="normal" font-weight="normal" text-decoration="none" x="600" y="30">UNREGISTERED</text><text fill="#eeeeee" stroke="none" font-family="Arial" font-size="24px" font-style="normal" font-weight="normal" text-decoration="none" x="600" y="60">UNREGISTERED</text><text fill="#eeeeee" stroke="none" font-family="Arial" font-size="24px" font-style="normal" font-weight="normal" text-decoration="none" x="600" y="90">UNREGISTERED</text><text fill="#eeeeee" stroke="none" font-family="Arial" font-size="24px" font-style="normal" font-weight="normal" text-decoration="none" x="600" y="120">UNREGISTERED</text><text fill="#eeeeee" stroke="none" font-family="Arial" font-size="24px" font-style="normal" font-weight="normal" text-decoration="none" x="600" y="150">UNREGISTERED</text><text fill="#eeeeee" stroke="none" font-family="Arial" font-size="24px" font-style="normal" font-weight="normal" text-decoration="none" x="600" y="180">UNREGISTERED</text><text fill="#eeeeee" stroke="none" font-family="Arial" font-size="24px" font-style="normal" font-weight="normal" text-decoration="none" x="600" y="210">UNREGISTERED</text><text fill="#eeeeee" stroke="none" font-family="Arial" font-size="24px" font-style="normal" font-weight="normal" text-decoration="none" x="600" y="240">UNREGISTERED</text><text fill="#eeeeee" stroke="none" font-family="Arial" font-size="24px" font-style="normal" font-weight="normal" text-decoration="none" x="600" y="270">UNREGISTERED</text><text fill="#eeeeee" stroke="none" font-family="Arial" font-size="24px" font-style="normal" font-weight="normal" text-decoration="none" x="600" y="300">UNREGISTERED</text><text fill="#eeeeee" stroke="none" font-family="Arial" font-size="24px" font-style="normal" font-weight="normal" text-decoration="none" x="600" y="330">UNREGISTERED</text><text fill="#eeeeee" stroke="none" font-family="Arial" font-size="24px" font-style="normal" font-weight="normal" text-decoration="none" x="600" y="360">UNREGISTERED</text><text fill="#eeeeee" stroke="none" font-family="Arial" font-size="24px" font-style="normal" font-weight="normal" text-decoration="none" x="600" y="390">UNREGISTERED</text><text fill="#eeeeee" stroke="none" font-family="Arial" font-size="24px" font-style="normal" font-weight="normal" text-decoration="none" x="600" y="420">UNREGISTERED</text><text fill="#eeeeee" stroke="none" font-family="Arial" font-size="24px" font-style="normal" font-weight="normal" text-decoration="none" x="600" y="450">UNREGISTERED</text><text fill="#eeeeee" stroke="none" font-family="Arial" font-size="24px" font-style="normal" font-weight="normal" text-decoration="none" x="600" y="480">UNREGISTERED</text><text fill="#eeeeee" stroke="none" font-family="Arial" font-size="24px" font-style="normal" font-weight="normal" text-decoration="none" x="600" y="510">UNREGISTERED</text><text fill="#eeeeee" stroke="none" font-family="Arial" font-size="24px" font-style="normal" font-weight="normal" text-decoration="none" x="600" y="540">UNREGISTERED</text><text fill="#eeeeee" stroke="none" font-family="Arial" font-size="24px" font-style="normal" font-weight="normal" text-decoration="none" x="600" y="570">UNREGISTERED</text><text fill="#eeeeee" stroke="none" font-family="Arial" font-size="24px" font-style="normal" font-weight="normal" text-decoration="none" x="600" y="600">UNREGISTERED</text><text fill="#eeeeee" stroke="none" font-family="Arial" font-size="24px" font-style="normal" font-weight="normal" text-decoration="none" x="600" y="630">UNREGISTERED</text><text fill="#eeeeee" stroke="none" font-family="Arial" font-size="24px" font-style="normal" font-weight="normal" text-decoration="none" x="600" y="660">UNREGISTERED</text><text fill="#eeeeee" stroke="none" font-family="Arial" font-size="24px" font-style="normal" font-weight="normal" text-decoration="none" x="600" y="690">UNREGISTERED</text><text fill="#eeeeee" stroke="none" font-family="Arial" font-size="24px" font-style="normal" font-weight="normal" text-decoration="none" x="800" y="0">UNREGISTERED</text><text fill="#eeeeee" stroke="none" font-family="Arial" font-size="24px" font-style="normal" font-weight="normal" text-decoration="none" x="800" y="30">UNREGISTERED</text><text fill="#eeeeee" stroke="none" font-family="Arial" font-size="24px" font-style="normal" font-weight="normal" text-decoration="none" x="800" y="60">UNREGISTERED</text><text fill="#eeeeee" stroke="none" font-family="Arial" font-size="24px" font-style="normal" font-weight="normal" text-decoration="none" x="800" y="90">UNREGISTERED</text><text fill="#eeeeee" stroke="none" font-family="Arial" font-size="24px" font-style="normal" font-weight="normal" text-decoration="none" x="800" y="120">UNREGISTERED</text><text fill="#eeeeee" stroke="none" font-family="Arial" font-size="24px" font-style="normal" font-weight="normal" text-decoration="none" x="800" y="150">UNREGISTERED</text><text fill="#eeeeee" stroke="none" font-family="Arial" font-size="24px" font-style="normal" font-weight="normal" text-decoration="none" x="800" y="180">UNREGISTERED</text><text fill="#eeeeee" stroke="none" font-family="Arial" font-size="24px" font-style="normal" font-weight="normal" text-decoration="none" x="800" y="210">UNREGISTERED</text><text fill="#eeeeee" stroke="none" font-family="Arial" font-size="24px" font-style="normal" font-weight="normal" text-decoration="none" x="800" y="240">UNREGISTERED</text><text fill="#eeeeee" stroke="none" font-family="Arial" font-size="24px" font-style="normal" font-weight="normal" text-decoration="none" x="800" y="270">UNREGISTERED</text><text fill="#eeeeee" stroke="none" font-family="Arial" font-size="24px" font-style="normal" font-weight="normal" text-decoration="none" x="800" y="300">UNREGISTERED</text><text fill="#eeeeee" stroke="none" font-family="Arial" font-size="24px" font-style="normal" font-weight="normal" text-decoration="none" x="800" y="330">UNREGISTERED</text><text fill="#eeeeee" stroke="none" font-family="Arial" font-size="24px" font-style="normal" font-weight="normal" text-decoration="none" x="800" y="360">UNREGISTERED</text><text fill="#eeeeee" stroke="none" font-family="Arial" font-size="24px" font-style="normal" font-weight="normal" text-decoration="none" x="800" y="390">UNREGISTERED</text><text fill="#eeeeee" stroke="none" font-family="Arial" font-size="24px" font-style="normal" font-weight="normal" text-decoration="none" x="800" y="420">UNREGISTERED</text><text fill="#eeeeee" stroke="none" font-family="Arial" font-size="24px" font-style="normal" font-weight="normal" text-decoration="none" x="800" y="450">UNREGISTERED</text><text fill="#eeeeee" stroke="none" font-family="Arial" font-size="24px" font-style="normal" font-weight="normal" text-decoration="none" x="800" y="480">UNREGISTERED</text><text fill="#eeeeee" stroke="none" font-family="Arial" font-size="24px" font-style="normal" font-weight="normal" text-decoration="none" x="800" y="510">UNREGISTERED</text><text fill="#eeeeee" stroke="none" font-family="Arial" font-size="24px" font-style="normal" font-weight="normal" text-decoration="none" x="800" y="540">UNREGISTERED</text><text fill="#eeeeee" stroke="none" font-family="Arial" font-size="24px" font-style="normal" font-weight="normal" text-decoration="none" x="800" y="570">UNREGISTERED</text><text fill="#eeeeee" stroke="none" font-family="Arial" font-size="24px" font-style="normal" font-weight="normal" text-decoration="none" x="800" y="600">UNREGISTERED</text><text fill="#eeeeee" stroke="none" font-family="Arial" font-size="24px" font-style="normal" font-weight="normal" text-decoration="none" x="800" y="630">UNREGISTERED</text><text fill="#eeeeee" stroke="none" font-family="Arial" font-size="24px" font-style="normal" font-weight="normal" text-decoration="none" x="800" y="660">UNREGISTERED</text><text fill="#eeeeee" stroke="none" font-family="Arial" font-size="24px" font-style="normal" font-weight="normal" text-decoration="none" x="800" y="690">UNREGISTERED</text><g transform="translate(-22,2) scale(1,1)"><path fill="none" stroke="#000000" d="M 32 8 L 336 8 L 336 208 L 32 208 L 32 8" stroke-miterlimit="10"/></g><g transform="translate(-22,2) scale(1,1)"><path fill="#ffffff" stroke="none" d="M 32 8 L 32 30 L 148.4453125 30 L 159.4453125 19 L 159.4453125 8 L 32 8"/></g><g transform="translate(-22,2) scale(1,1)"><path fill="none" stroke="#000000" d="M 32 8 L 32 30 L 148.4453125 30 L 159.4453125 19 L 159.4453125 8 L 32 8 L 32 8" stroke-miterlimit="10"/></g><g transform="translate(-22,2) scale(1,1)"><g><path fill="none" stroke="none"/><text fill="#000000" stroke="none" font-family="Arial" font-size="13px" font-style="normal" font-weight="normal" text-decoration="none" x="102.97900390625" y="25.5">Cliente</text></g></g><g transform="translate(-22,2) scale(1,1)"><g><path fill="none" stroke="none"/><text fill="#000000" stroke="none" font-family="Arial" font-size="13px" font-style="normal" font-weight="bold" text-decoration="none" x="37" y="25.5">interaction</text></g></g><g transform="translate(-22,2) scale(1,1)"><path fill="none" stroke="#000000" d="M 384 8 L 992 8 L 992 208 L 384 208 L 384 8" stroke-miterlimit="10"/></g><g transform="translate(-22,2) scale(1,1)"><path fill="#ffffff" stroke="none" d="M 384 8 L 384 30 L 508.38623046875 30 L 519.38623046875 19 L 519.38623046875 8 L 384 8"/></g><g transform="translate(-22,2) scale(1,1)"><path fill="none" stroke="#000000" d="M 384 8 L 384 30 L 508.38623046875 30 L 519.38623046875 19 L 519.38623046875 8 L 384 8 L 384 8" stroke-miterlimit="10"/></g><g transform="translate(-22,2) scale(1,1)"><g><path fill="none" stroke="none"/><text fill="#000000" stroke="none" font-family="Arial" font-size="13px" font-style="normal" font-weight="normal" text-decoration="none" x="454.97900390625" y="25.5">Servidor</text></g></g><g transform="translate(-22,2) scale(1,1)"><g><path fill="none" stroke="none"/><text fill="#000000" stroke="none" font-family="Arial" font-size="13px" font-style="normal" font-weight="bold" text-decoration="none" x="389" y="25.5">interaction</text></g></g><g transform="translate(-22,2) scale(1,1)"><rect fill="#C0C0C0" stroke="none" x="687" y="47" width="151" height="39" opacity="0.2"/></g><g transform="translate(-22,2) scale(1,1)"><rect fill="#ffffff" stroke="none" x="680" y="40" width="151" height="39"/></g><g transform="translate(-22,2) scale(1,1)"><path fill="none" stroke="#000000" d="M 680 40 L 831 40 L 831 79 L 680 79 L 680 40 Z Z" stroke-miterlimit="10"/></g><g transform="translate(-22,2) scale(1,1)"><g><path fill="none" stroke="none"/><text fill="#000000" stroke="none" font-family="Arial" font-size="13px" font-style="normal" font-weight="bold" text-decoration="none" x="736.714111328125" y="59.5">Defect</text></g></g><g transform="translate(-22,2) scale(1,1)"><path fill="none" stroke="#000000" d="M 756.5 80 L 756.5 672" stroke-miterlimit="10" stroke-dasharray="3"/></g><g transform="translate(-22,2) scale(1,1)"><rect fill="#C0C0C0" stroke="none" x="855" y="47" width="127" height="39" opacity="0.2"/></g><g transform="translate(-22,2) scale(1,1)"><rect fill="#ffffff" stroke="none" x="848" y="40" width="127" height="39"/></g><g transform="translate(-22,2) scale(1,1)"><path fill="none" stroke="#000000" d="M 848 40 L 975 40 L 975 79 L 848 79 L 848 40 Z Z" stroke-miterlimit="10"/></g><g transform="translate(-22,2) scale(1,1)"><g><path fill="none" stroke="none"/><text fill="#000000" stroke="none" font-family="Arial" font-size="13px" font-style="normal" font-weight="bold" text-decoration="none" x="873.442626953125" y="59.5">Yolo Network</text></g></g><g transform="translate(-22,2) scale(1,1)"><path fill="none" stroke="#000000" d="M 912.5 80 L 912.5 672" stroke-miterlimit="10" stroke-dasharray="3"/></g><g transform="translate(-22,2) scale(1,1)"><rect fill="#C0C0C0" stroke="none" x="183" y="47" width="91.2236328125" height="39" opacity="0.2"/></g><g transform="translate(-22,2) scale(1,1)"><rect fill="#ffffff" stroke="none" x="176" y="40" width="91.2236328125" height="39"/></g><g transform="translate(-22,2) scale(1,1)"><path fill="none" stroke="#000000" d="M 176 40 L 267.2236328125 40 L 267.2236328125 79 L 176 79 L 176 40 Z Z" stroke-miterlimit="10"/></g><g transform="translate(-22,2) scale(1,1)"><g><path fill="none" stroke="none"/><text fill="#000000" stroke="none" font-family="Arial" font-size="13px" font-style="normal" font-weight="bold" text-decoration="none" x="188.00732421875" y="59.5">App Cliente</text></g></g><g transform="translate(-22,2) scale(1,1)"><path fill="none" stroke="#000000" d="M 222.5 80 L 222.5 680" stroke-miterlimit="10" stroke-dasharray="3"/></g><g transform="translate(-22,2) scale(1,1)"><rect fill="#C0C0C0" stroke="none" x="407" y="47" width="266.03173828125" height="39" opacity="0.2"/></g><g transform="translate(-22,2) scale(1,1)"><rect fill="#ffffff" stroke="none" x="400" y="40" width="266.03173828125" height="39"/></g><g transform="translate(-22,2) scale(1,1)"><path fill="none" stroke="#000000" d="M 400 40 L 666.03173828125 40 L 666.03173828125 79 L 400 79 L 400 40 Z Z" stroke-miterlimit="10"/></g><g transform="translate(-22,2) scale(1,1)"><g><path fill="none" stroke="none"/><text fill="#000000" stroke="none" font-family="Arial" font-size="13px" font-style="normal" font-weight="bold" text-decoration="none" x="416.682373046875" y="59.5">Controlador: BaseHTTPRequestHandler</text></g></g><g transform="translate(-22,2) scale(1,1)"><path fill="none" stroke="#000000" d="M 534.5 80 L 534.5 680" stroke-miterlimit="10" stroke-dasharray="3"/></g><g transform="translate(-22,2) scale(1,1)"><path fill="none" stroke="#000000" d="M 756 240 L 905 240" stroke-miterlimit="10"/></g><g transform="translate(-22,2) scale(1,1)"><path fill="#000000" stroke="none" d="M 894.8373251423759 244.209517756016 L 905 240 L 894.8373251423758 235.790482243984"/></g><g transform="translate(-22,2) scale(1,1)"><path fill="none" stroke="#000000" d="M 894.8373251423759 244.209517756016 L 905 240 L 894.8373251423758 235.790482243984 L 894.8373251423759 244.209517756016" stroke-miterlimit="10"/></g><g transform="translate(-22,2) scale(1,1)"><g><path fill="none" stroke="none"/><text fill="#000000" stroke="none" font-family="Arial" font-size="13px" font-style="normal" font-weight="normal" text-decoration="none" x="786.5" y="236.5">1 : Load model</text></g></g><g transform="translate(-22,2) scale(1,1)"><rect fill="#ffffff" stroke="none" x="905" y="240" width="13" height="28"/></g><g transform="translate(-22,2) scale(1,1)"><path fill="none" stroke="#000000" d="M 905 240 L 918 240 L 918 268 L 905 268 L 905 240 Z Z" stroke-miterlimit="10"/></g><g transform="translate(-22,2) scale(1,1)"><path fill="none" stroke="#000000" d="M 222 256 L 252 256 L 252 276 L 228 276" stroke-miterlimit="10"/></g><g transform="translate(-22,2) scale(1,1)"><path fill="#000000" stroke="none" d="M 238.16267485762415 271.790482243984 L 228 276 L 238.16267485762415 280.209517756016"/></g><g transform="translate(-22,2) scale(1,1)"><path fill="none" stroke="#000000" d="M 238.16267485762415 271.790482243984 L 228 276 L 238.16267485762415 280.209517756016 L 238.16267485762415 271.790482243984" stroke-miterlimit="10"/></g><g transform="translate(-22,2) scale(1,1)"><g><path fill="none" stroke="none"/><text fill="#000000" stroke="none" font-family="Arial" font-size="13px" font-style="normal" font-weight="normal" text-decoration="none" x="44.5" y="270.5">2 : Insert path and load image</text></g></g><g transform="translate(-22,2) scale(1,1)"><rect fill="#ffffff" stroke="none" x="215" y="276" width="13" height="28"/></g><g transform="translate(-22,2) scale(1,1)"><path fill="none" stroke="#000000" d="M 215 276 L 228 276 L 228 304 L 215 304 L 215 276 Z Z" stroke-miterlimit="10"/></g><g transform="translate(-22,2) scale(1,1)"><path fill="none" stroke="#000000" d="M 222 328 L 527 328" stroke-miterlimit="10"/></g><g transform="translate(-22,2) scale(1,1)"><path fill="#000000" stroke="none" d="M 516.8373251423759 332.209517756016 L 527 328 L 516.8373251423758 323.790482243984"/></g><g transform="translate(-22,2) scale(1,1)"><path fill="none" stroke="#000000" d="M 516.8373251423759 332.209517756016 L 527 328 L 516.8373251423758 323.790482243984 L 516.8373251423759 332.209517756016" stroke-miterlimit="10"/></g><g transform="translate(-22,2) scale(1,1)"><g><path fill="none" stroke="none"/><text fill="#000000" stroke="none" font-family="Arial" font-size="13px" font-style="normal" font-weight="normal" text-decoration="none" x="228.5" y="324.5">3 : HTTP POST with JSON with imagen in Base64</text></g></g><g transform="translate(-22,2) scale(1,1)"><rect fill="#ffffff" stroke="none" x="527" y="328" width="13" height="28"/></g><g transform="translate(-22,2) scale(1,1)"><path fill="none" stroke="#000000" d="M 527 328 L 540 328 L 540 356 L 527 356 L 527 328 Z Z" stroke-miterlimit="10"/></g><g transform="translate(-22,2) scale(1,1)"><path fill="none" stroke="#000000" d="M 534 408 L 749 408" stroke-miterlimit="10"/></g><g transform="translate(-22,2) scale(1,1)"><path fill="none" stroke="#000000" d="M 738.8373251423759 412.209517756016 L 749 408 L 738.8373251423758 403.790482243984" stroke-miterlimit="10"/></g><g transform="translate(-22,2) scale(1,1)"><g><path fill="none" stroke="none"/><text fill="#000000" stroke="none" font-family="Arial" font-size="13px" font-style="normal" font-weight="normal" text-decoration="none" x="592.5" y="404.5">4 : Send (image)</text></g></g><g transform="translate(-22,2) scale(1,1)"><rect fill="#ffffff" stroke="none" x="749" y="408" width="13" height="28"/></g><g transform="translate(-22,2) scale(1,1)"><path fill="none" stroke="#000000" d="M 749 408 L 762 408 L 762 436 L 749 436 L 749 408 Z Z" stroke-miterlimit="10"/></g><g transform="translate(-22,2) scale(1,1)"><path fill="none" stroke="#000000" d="M 756 480 L 905 480" stroke-miterlimit="10"/></g><g transform="translate(-22,2) scale(1,1)"><path fill="none" stroke="#000000" d="M 894.8373251423759 484.209517756016 L 905 480 L 894.8373251423758 475.790482243984" stroke-miterlimit="10"/></g><g transform="translate(-22,2) scale(1,1)"><g><path fill="none" stroke="none"/><text fill="#000000" stroke="none" font-family="Arial" font-size="13px" font-style="normal" font-weight="normal" text-decoration="none" x="758.5" y="476.5">5 : defectdetector(image)</text></g></g><g transform="translate(-22,2) scale(1,1)"><rect fill="#ffffff" stroke="none" x="905" y="480" width="13" height="28"/></g><g transform="translate(-22,2) scale(1,1)"><path fill="none" stroke="#000000" d="M 905 480 L 918 480 L 918 508 L 905 508 L 905 480 Z Z" stroke-miterlimit="10"/></g><g transform="translate(-22,2) scale(1,1)"><path fill="none" stroke="#000000" d="M 912 528 L 756 528" stroke-miterlimit="10" stroke-dasharray="3"/></g><g transform="translate(-22,2) scale(1,1)"><path fill="none" stroke="#000000" d="M 766.1626748576241 523.790482243984 L 756 528 L 766.1626748576241 532.209517756016" stroke-miterlimit="10"/></g><g transform="translate(-22,2) scale(1,1)"><g><path fill="none" stroke="none"/><text fill="#000000" stroke="none" font-family="Arial" font-size="13px" font-style="normal" font-weight="normal" text-decoration="none" x="800.5" y="544.5">6 : XML file</text></g></g><g transform="translate(-22,2) scale(1,1)"><path fill="none" stroke="#000000" d="M 756 568 L 534 568" stroke-miterlimit="10" stroke-dasharray="3"/></g><g transform="translate(-22,2) scale(1,1)"><path fill="none" stroke="#000000" d="M 544.1626748576241 563.790482243984 L 534 568 L 544.1626748576241 572.209517756016" stroke-miterlimit="10"/></g><g transform="translate(-22,2) scale(1,1)"><g><path fill="none" stroke="none"/><text fill="#000000" stroke="none" font-family="Arial" font-size="13px" font-style="normal" font-weight="normal" text-decoration="none" x="611.5" y="584.5">7 : XML file</text></g></g><g transform="translate(-22,2) scale(1,1)"><path fill="none" stroke="#000000" d="M 534 616 L 222 616" stroke-miterlimit="10" stroke-dasharray="3"/></g><g transform="translate(-22,2) scale(1,1)"><path fill="none" stroke="#000000" d="M 232.16267485762415 611.790482243984 L 222 616 L 232.16267485762415 620.209517756016" stroke-miterlimit="10"/></g><g transform="translate(-22,2) scale(1,1)"><g><path fill="none" stroke="none"/><text fill="#000000" stroke="none" font-family="Arial" font-size="13px" font-style="normal" font-weight="normal" text-decoration="none" x="350.5" y="632.5">8 : JSON</text></g></g></g></svg>